%TF.GenerationSoftware,KiCad,Pcbnew,(6.0.11-0)*%
%TF.CreationDate,2025-10-07T00:59:29-07:00*%
%TF.ProjectId,27M_TX_Board_R1.1,32374d5f-5458-45f4-926f-6172645f5231,rev?*%
%TF.SameCoordinates,Original*%
%TF.FileFunction,Legend,Top*%
%TF.FilePolarity,Positive*%
%FSLAX46Y46*%
G04 Gerber Fmt 4.6, Leading zero omitted, Abs format (unit mm)*
G04 Created by KiCad (PCBNEW (6.0.11-0)) date 2025-10-07 00:59:29*
%MOMM*%
%LPD*%
G01*
G04 APERTURE LIST*
%ADD10C,0.150000*%
%ADD11C,0.300000*%
%ADD12C,0.120000*%
G04 APERTURE END LIST*
D10*
X243026071Y-58452380D02*
X243216547Y-58452380D01*
X243311785Y-58500000D01*
X243407023Y-58595238D01*
X243454642Y-58785714D01*
X243454642Y-59119047D01*
X243407023Y-59309523D01*
X243311785Y-59404761D01*
X243216547Y-59452380D01*
X243026071Y-59452380D01*
X242930833Y-59404761D01*
X242835595Y-59309523D01*
X242787976Y-59119047D01*
X242787976Y-58785714D01*
X242835595Y-58595238D01*
X242930833Y-58500000D01*
X243026071Y-58452380D01*
X244311785Y-59404761D02*
X244216547Y-59452380D01*
X244026071Y-59452380D01*
X243930833Y-59404761D01*
X243883214Y-59357142D01*
X243835595Y-59261904D01*
X243835595Y-58976190D01*
X243883214Y-58880952D01*
X243930833Y-58833333D01*
X244026071Y-58785714D01*
X244216547Y-58785714D01*
X244311785Y-58833333D01*
X244597500Y-58785714D02*
X244978452Y-58785714D01*
X244740357Y-58452380D02*
X244740357Y-59309523D01*
X244787976Y-59404761D01*
X244883214Y-59452380D01*
X244978452Y-59452380D01*
X246026071Y-58547619D02*
X246073690Y-58500000D01*
X246168928Y-58452380D01*
X246407023Y-58452380D01*
X246502261Y-58500000D01*
X246549880Y-58547619D01*
X246597500Y-58642857D01*
X246597500Y-58738095D01*
X246549880Y-58880952D01*
X245978452Y-59452380D01*
X246597500Y-59452380D01*
X247216547Y-58452380D02*
X247311785Y-58452380D01*
X247407023Y-58500000D01*
X247454642Y-58547619D01*
X247502261Y-58642857D01*
X247549880Y-58833333D01*
X247549880Y-59071428D01*
X247502261Y-59261904D01*
X247454642Y-59357142D01*
X247407023Y-59404761D01*
X247311785Y-59452380D01*
X247216547Y-59452380D01*
X247121309Y-59404761D01*
X247073690Y-59357142D01*
X247026071Y-59261904D01*
X246978452Y-59071428D01*
X246978452Y-58833333D01*
X247026071Y-58642857D01*
X247073690Y-58547619D01*
X247121309Y-58500000D01*
X247216547Y-58452380D01*
X247930833Y-58547619D02*
X247978452Y-58500000D01*
X248073690Y-58452380D01*
X248311785Y-58452380D01*
X248407023Y-58500000D01*
X248454642Y-58547619D01*
X248502261Y-58642857D01*
X248502261Y-58738095D01*
X248454642Y-58880952D01*
X247883214Y-59452380D01*
X248502261Y-59452380D01*
X249407023Y-58452380D02*
X248930833Y-58452380D01*
X248883214Y-58928571D01*
X248930833Y-58880952D01*
X249026071Y-58833333D01*
X249264166Y-58833333D01*
X249359404Y-58880952D01*
X249407023Y-58928571D01*
X249454642Y-59023809D01*
X249454642Y-59261904D01*
X249407023Y-59357142D01*
X249359404Y-59404761D01*
X249264166Y-59452380D01*
X249026071Y-59452380D01*
X248930833Y-59404761D01*
X248883214Y-59357142D01*
D11*
X210550000Y-23640476D02*
X210640476Y-23550000D01*
X210821428Y-23459523D01*
X211273809Y-23459523D01*
X211454761Y-23550000D01*
X211545238Y-23640476D01*
X211635714Y-23821428D01*
X211635714Y-24002380D01*
X211545238Y-24273809D01*
X210459523Y-25359523D01*
X211635714Y-25359523D01*
X212269047Y-23459523D02*
X213535714Y-23459523D01*
X212721428Y-25359523D01*
X215707142Y-25359523D02*
X215707142Y-23459523D01*
X216340476Y-24816666D01*
X216973809Y-23459523D01*
X216973809Y-25359523D01*
X217878571Y-25359523D02*
X217878571Y-23459523D01*
X217878571Y-24364285D02*
X218964285Y-24364285D01*
X218964285Y-25359523D02*
X218964285Y-23459523D01*
X219688095Y-24092857D02*
X220683333Y-24092857D01*
X219688095Y-25359523D01*
X220683333Y-25359523D01*
X222583333Y-23459523D02*
X223669047Y-23459523D01*
X223126190Y-25359523D02*
X223126190Y-23459523D01*
X224302380Y-25359523D02*
X224302380Y-24092857D01*
X224302380Y-24454761D02*
X224392857Y-24273809D01*
X224483333Y-24183333D01*
X224664285Y-24092857D01*
X224845238Y-24092857D01*
X226292857Y-25359523D02*
X226292857Y-24364285D01*
X226202380Y-24183333D01*
X226021428Y-24092857D01*
X225659523Y-24092857D01*
X225478571Y-24183333D01*
X226292857Y-25269047D02*
X226111904Y-25359523D01*
X225659523Y-25359523D01*
X225478571Y-25269047D01*
X225388095Y-25088095D01*
X225388095Y-24907142D01*
X225478571Y-24726190D01*
X225659523Y-24635714D01*
X226111904Y-24635714D01*
X226292857Y-24545238D01*
X227197619Y-24092857D02*
X227197619Y-25359523D01*
X227197619Y-24273809D02*
X227288095Y-24183333D01*
X227469047Y-24092857D01*
X227740476Y-24092857D01*
X227921428Y-24183333D01*
X228011904Y-24364285D01*
X228011904Y-25359523D01*
X228826190Y-25269047D02*
X229007142Y-25359523D01*
X229369047Y-25359523D01*
X229550000Y-25269047D01*
X229640476Y-25088095D01*
X229640476Y-24997619D01*
X229550000Y-24816666D01*
X229369047Y-24726190D01*
X229097619Y-24726190D01*
X228916666Y-24635714D01*
X228826190Y-24454761D01*
X228826190Y-24364285D01*
X228916666Y-24183333D01*
X229097619Y-24092857D01*
X229369047Y-24092857D01*
X229550000Y-24183333D01*
X230454761Y-25359523D02*
X230454761Y-24092857D01*
X230454761Y-24273809D02*
X230545238Y-24183333D01*
X230726190Y-24092857D01*
X230997619Y-24092857D01*
X231178571Y-24183333D01*
X231269047Y-24364285D01*
X231269047Y-25359523D01*
X231269047Y-24364285D02*
X231359523Y-24183333D01*
X231540476Y-24092857D01*
X231811904Y-24092857D01*
X231992857Y-24183333D01*
X232083333Y-24364285D01*
X232083333Y-25359523D01*
X232988095Y-25359523D02*
X232988095Y-24092857D01*
X232988095Y-23459523D02*
X232897619Y-23550000D01*
X232988095Y-23640476D01*
X233078571Y-23550000D01*
X232988095Y-23459523D01*
X232988095Y-23640476D01*
X233621428Y-24092857D02*
X234345238Y-24092857D01*
X233892857Y-23459523D02*
X233892857Y-25088095D01*
X233983333Y-25269047D01*
X234164285Y-25359523D01*
X234345238Y-25359523D01*
X234707142Y-24092857D02*
X235430952Y-24092857D01*
X234978571Y-23459523D02*
X234978571Y-25088095D01*
X235069047Y-25269047D01*
X235249999Y-25359523D01*
X235430952Y-25359523D01*
X236788095Y-25269047D02*
X236607142Y-25359523D01*
X236245238Y-25359523D01*
X236064285Y-25269047D01*
X235973809Y-25088095D01*
X235973809Y-24364285D01*
X236064285Y-24183333D01*
X236245238Y-24092857D01*
X236607142Y-24092857D01*
X236788095Y-24183333D01*
X236878571Y-24364285D01*
X236878571Y-24545238D01*
X235973809Y-24726190D01*
X237692857Y-25359523D02*
X237692857Y-24092857D01*
X237692857Y-24454761D02*
X237783333Y-24273809D01*
X237873809Y-24183333D01*
X238054761Y-24092857D01*
X238235714Y-24092857D01*
X241402380Y-25359523D02*
X240769047Y-24454761D01*
X240316666Y-25359523D02*
X240316666Y-23459523D01*
X241040476Y-23459523D01*
X241221428Y-23550000D01*
X241311904Y-23640476D01*
X241402380Y-23821428D01*
X241402380Y-24092857D01*
X241311904Y-24273809D01*
X241221428Y-24364285D01*
X241040476Y-24454761D01*
X240316666Y-24454761D01*
X242940476Y-25269047D02*
X242759523Y-25359523D01*
X242397619Y-25359523D01*
X242216666Y-25269047D01*
X242126190Y-25088095D01*
X242126190Y-24364285D01*
X242216666Y-24183333D01*
X242397619Y-24092857D01*
X242759523Y-24092857D01*
X242940476Y-24183333D01*
X243030952Y-24364285D01*
X243030952Y-24545238D01*
X242126190Y-24726190D01*
X243664285Y-24092857D02*
X244116666Y-25359523D01*
X244569047Y-24092857D01*
X247735714Y-25359523D02*
X246650000Y-25359523D01*
X247192857Y-25359523D02*
X247192857Y-23459523D01*
X247011904Y-23730952D01*
X246830952Y-23911904D01*
X246650000Y-24002380D01*
X248550000Y-25178571D02*
X248640476Y-25269047D01*
X248550000Y-25359523D01*
X248459523Y-25269047D01*
X248550000Y-25178571D01*
X248550000Y-25359523D01*
X250449999Y-25359523D02*
X249364285Y-25359523D01*
X249907142Y-25359523D02*
X249907142Y-23459523D01*
X249726190Y-23730952D01*
X249545238Y-23911904D01*
X249364285Y-24002380D01*
D10*
X212787976Y-59404761D02*
X212930833Y-59452380D01*
X213168928Y-59452380D01*
X213264166Y-59404761D01*
X213311785Y-59357142D01*
X213359404Y-59261904D01*
X213359404Y-59166666D01*
X213311785Y-59071428D01*
X213264166Y-59023809D01*
X213168928Y-58976190D01*
X212978452Y-58928571D01*
X212883214Y-58880952D01*
X212835595Y-58833333D01*
X212787976Y-58738095D01*
X212787976Y-58642857D01*
X212835595Y-58547619D01*
X212883214Y-58500000D01*
X212978452Y-58452380D01*
X213216547Y-58452380D01*
X213359404Y-58500000D01*
X214168928Y-59404761D02*
X214073690Y-59452380D01*
X213883214Y-59452380D01*
X213787976Y-59404761D01*
X213740357Y-59309523D01*
X213740357Y-58928571D01*
X213787976Y-58833333D01*
X213883214Y-58785714D01*
X214073690Y-58785714D01*
X214168928Y-58833333D01*
X214216547Y-58928571D01*
X214216547Y-59023809D01*
X213740357Y-59119047D01*
X214645119Y-59452380D02*
X214645119Y-58452380D01*
X214645119Y-58833333D02*
X214740357Y-58785714D01*
X214930833Y-58785714D01*
X215026071Y-58833333D01*
X215073690Y-58880952D01*
X215121309Y-58976190D01*
X215121309Y-59261904D01*
X215073690Y-59357142D01*
X215026071Y-59404761D01*
X214930833Y-59452380D01*
X214740357Y-59452380D01*
X214645119Y-59404761D01*
X215978452Y-59452380D02*
X215978452Y-58928571D01*
X215930833Y-58833333D01*
X215835595Y-58785714D01*
X215645119Y-58785714D01*
X215549880Y-58833333D01*
X215978452Y-59404761D02*
X215883214Y-59452380D01*
X215645119Y-59452380D01*
X215549880Y-59404761D01*
X215502261Y-59309523D01*
X215502261Y-59214285D01*
X215549880Y-59119047D01*
X215645119Y-59071428D01*
X215883214Y-59071428D01*
X215978452Y-59023809D01*
X216407023Y-59404761D02*
X216502261Y-59452380D01*
X216692738Y-59452380D01*
X216787976Y-59404761D01*
X216835595Y-59309523D01*
X216835595Y-59261904D01*
X216787976Y-59166666D01*
X216692738Y-59119047D01*
X216549880Y-59119047D01*
X216454642Y-59071428D01*
X216407023Y-58976190D01*
X216407023Y-58928571D01*
X216454642Y-58833333D01*
X216549880Y-58785714D01*
X216692738Y-58785714D01*
X216787976Y-58833333D01*
X217121309Y-58785714D02*
X217502261Y-58785714D01*
X217264166Y-58452380D02*
X217264166Y-59309523D01*
X217311785Y-59404761D01*
X217407023Y-59452380D01*
X217502261Y-59452380D01*
X217835595Y-59452380D02*
X217835595Y-58785714D01*
X217835595Y-58452380D02*
X217787976Y-58500000D01*
X217835595Y-58547619D01*
X217883214Y-58500000D01*
X217835595Y-58452380D01*
X217835595Y-58547619D01*
X218740357Y-59452380D02*
X218740357Y-58928571D01*
X218692738Y-58833333D01*
X218597500Y-58785714D01*
X218407023Y-58785714D01*
X218311785Y-58833333D01*
X218740357Y-59404761D02*
X218645119Y-59452380D01*
X218407023Y-59452380D01*
X218311785Y-59404761D01*
X218264166Y-59309523D01*
X218264166Y-59214285D01*
X218311785Y-59119047D01*
X218407023Y-59071428D01*
X218645119Y-59071428D01*
X218740357Y-59023809D01*
X219216547Y-58785714D02*
X219216547Y-59452380D01*
X219216547Y-58880952D02*
X219264166Y-58833333D01*
X219359404Y-58785714D01*
X219502261Y-58785714D01*
X219597500Y-58833333D01*
X219645119Y-58928571D01*
X219645119Y-59452380D01*
X221168928Y-58452380D02*
X221168928Y-59166666D01*
X221121309Y-59309523D01*
X221026071Y-59404761D01*
X220883214Y-59452380D01*
X220787976Y-59452380D01*
X221787976Y-59452380D02*
X221692738Y-59404761D01*
X221645119Y-59357142D01*
X221597500Y-59261904D01*
X221597500Y-58976190D01*
X221645119Y-58880952D01*
X221692738Y-58833333D01*
X221787976Y-58785714D01*
X221930833Y-58785714D01*
X222026071Y-58833333D01*
X222073690Y-58880952D01*
X222121309Y-58976190D01*
X222121309Y-59261904D01*
X222073690Y-59357142D01*
X222026071Y-59404761D01*
X221930833Y-59452380D01*
X221787976Y-59452380D01*
X222549880Y-58785714D02*
X222549880Y-59452380D01*
X222549880Y-58880952D02*
X222597500Y-58833333D01*
X222692738Y-58785714D01*
X222835595Y-58785714D01*
X222930833Y-58833333D01*
X222978452Y-58928571D01*
X222978452Y-59452380D01*
X223835595Y-59404761D02*
X223740357Y-59452380D01*
X223549880Y-59452380D01*
X223454642Y-59404761D01*
X223407023Y-59309523D01*
X223407023Y-58928571D01*
X223454642Y-58833333D01*
X223549880Y-58785714D01*
X223740357Y-58785714D01*
X223835595Y-58833333D01*
X223883214Y-58928571D01*
X223883214Y-59023809D01*
X223407023Y-59119047D01*
X224264166Y-59404761D02*
X224359404Y-59452380D01*
X224549880Y-59452380D01*
X224645119Y-59404761D01*
X224692738Y-59309523D01*
X224692738Y-59261904D01*
X224645119Y-59166666D01*
X224549880Y-59119047D01*
X224407023Y-59119047D01*
X224311785Y-59071428D01*
X224264166Y-58976190D01*
X224264166Y-58928571D01*
X224311785Y-58833333D01*
X224407023Y-58785714D01*
X224549880Y-58785714D01*
X224645119Y-58833333D01*
D12*
%TO.C,R28*%
X223359420Y-50490000D02*
X223640580Y-50490000D01*
X223359420Y-51510000D02*
X223640580Y-51510000D01*
%TO.C,D2*%
X233050000Y-51300000D02*
X233050000Y-48750000D01*
X231350000Y-51300000D02*
X233050000Y-51300000D01*
X231350000Y-51300000D02*
X231350000Y-48750000D01*
%TO.C,D4*%
X228100000Y-51150000D02*
X228100000Y-52850000D01*
X228100000Y-51150000D02*
X230650000Y-51150000D01*
X228100000Y-52850000D02*
X230650000Y-52850000D01*
%TO.C,R47*%
X242540580Y-46290000D02*
X242259420Y-46290000D01*
X242540580Y-47310000D02*
X242259420Y-47310000D01*
%TO.C,L2*%
X220265000Y-52738748D02*
X220265000Y-53261252D01*
X221735000Y-52738748D02*
X221735000Y-53261252D01*
%TO.C,Q3*%
X212700000Y-42740000D02*
X211325000Y-42740000D01*
%TO.C,J1*%
X239300000Y-30400000D02*
X247300000Y-30400000D01*
X247300000Y-30400000D02*
X247300000Y-27400000D01*
X239300000Y-27400000D02*
X239300000Y-30400000D01*
X247300000Y-27400000D02*
X239300000Y-27400000D01*
%TO.C,C29*%
X226290000Y-44959420D02*
X226290000Y-45240580D01*
X227310000Y-44959420D02*
X227310000Y-45240580D01*
%TO.C,R40*%
X230740580Y-32790000D02*
X230459420Y-32790000D01*
X230740580Y-33810000D02*
X230459420Y-33810000D01*
%TO.C,R13*%
X225810000Y-45240580D02*
X225810000Y-44959420D01*
X224790000Y-45240580D02*
X224790000Y-44959420D01*
%TO.C,C27*%
X238090000Y-48959420D02*
X238090000Y-49240580D01*
X239110000Y-48959420D02*
X239110000Y-49240580D01*
%TO.C,R11*%
X212559420Y-37290000D02*
X212840580Y-37290000D01*
X212559420Y-38310000D02*
X212840580Y-38310000D01*
%TO.C,C7*%
X214540580Y-47310000D02*
X214259420Y-47310000D01*
X214540580Y-46290000D02*
X214259420Y-46290000D01*
%TO.C,R46*%
X233210000Y-37440580D02*
X233210000Y-37159420D01*
X232190000Y-37440580D02*
X232190000Y-37159420D01*
%TO.C,R44*%
X235159420Y-38610000D02*
X235440580Y-38610000D01*
X235159420Y-37590000D02*
X235440580Y-37590000D01*
%TO.C,R39*%
X232590000Y-29359420D02*
X232590000Y-29640580D01*
X233610000Y-29359420D02*
X233610000Y-29640580D01*
%TO.C,R34*%
X232990000Y-45959420D02*
X232990000Y-46240580D01*
X234010000Y-45959420D02*
X234010000Y-46240580D01*
D10*
%TO.C,U1*%
X224100000Y-41600000D02*
X224100000Y-43000000D01*
X221600000Y-43000000D02*
X221600000Y-41600000D01*
X221600000Y-41600000D02*
X224100000Y-41600000D01*
X224000000Y-43000000D02*
X221600000Y-43000000D01*
X224100000Y-43000000D02*
X224000000Y-43000000D01*
X222000000Y-42700000D02*
G75*
G03*
X222000000Y-42700000I-100000J0D01*
G01*
D12*
%TO.C,R37*%
X242259420Y-47790000D02*
X242540580Y-47790000D01*
X242259420Y-48810000D02*
X242540580Y-48810000D01*
%TO.C,R49*%
X240610000Y-45959420D02*
X240610000Y-46240580D01*
X239590000Y-45959420D02*
X239590000Y-46240580D01*
%TO.C,R31*%
X226640580Y-48990000D02*
X226359420Y-48990000D01*
X226640580Y-50010000D02*
X226359420Y-50010000D01*
%TO.C,C21*%
X223140580Y-48510000D02*
X222859420Y-48510000D01*
X223140580Y-47490000D02*
X222859420Y-47490000D01*
%TO.C,C25*%
X232510000Y-46240580D02*
X232510000Y-45959420D01*
X231490000Y-46240580D02*
X231490000Y-45959420D01*
%TO.C,C13*%
X243140580Y-40010000D02*
X242859420Y-40010000D01*
X243140580Y-38990000D02*
X242859420Y-38990000D01*
%TO.C,R15*%
X229840580Y-46290000D02*
X229559420Y-46290000D01*
X229840580Y-47310000D02*
X229559420Y-47310000D01*
%TO.C,R26*%
X223640580Y-50010000D02*
X223359420Y-50010000D01*
X223640580Y-48990000D02*
X223359420Y-48990000D01*
%TO.C,U8*%
X215800000Y-32085000D02*
X215000000Y-32085000D01*
X215800000Y-32085000D02*
X216600000Y-32085000D01*
X215800000Y-28965000D02*
X216600000Y-28965000D01*
X215800000Y-28965000D02*
X214000000Y-28965000D01*
%TO.C,C36*%
X219640580Y-45410000D02*
X219359420Y-45410000D01*
X219640580Y-44390000D02*
X219359420Y-44390000D01*
%TO.C,R8*%
X217710000Y-44340580D02*
X217710000Y-44059420D01*
X216690000Y-44340580D02*
X216690000Y-44059420D01*
%TO.C,R27*%
X223359420Y-53010000D02*
X223640580Y-53010000D01*
X223359420Y-51990000D02*
X223640580Y-51990000D01*
%TO.C,Q1*%
X229040000Y-30800000D02*
X229040000Y-32175000D01*
%TO.C,C1*%
X230690000Y-37159420D02*
X230690000Y-37440580D01*
X231710000Y-37159420D02*
X231710000Y-37440580D01*
%TO.C,Q4*%
X210600000Y-50640000D02*
X209225000Y-50640000D01*
%TO.C,C32*%
X239590000Y-48959420D02*
X239590000Y-49240580D01*
X240610000Y-48959420D02*
X240610000Y-49240580D01*
%TO.C,R9*%
X214540580Y-48810000D02*
X214259420Y-48810000D01*
X214540580Y-47790000D02*
X214259420Y-47790000D01*
%TO.C,R20*%
X235440580Y-40590000D02*
X235159420Y-40590000D01*
X235440580Y-41610000D02*
X235159420Y-41610000D01*
%TO.C,C23*%
X226359420Y-53010000D02*
X226640580Y-53010000D01*
X226359420Y-51990000D02*
X226640580Y-51990000D01*
%TO.C,C19*%
X218110000Y-53359420D02*
X218110000Y-53640580D01*
X217090000Y-53359420D02*
X217090000Y-53640580D01*
%TO.C,R50*%
X209690000Y-38240580D02*
X209690000Y-37959420D01*
X210710000Y-38240580D02*
X210710000Y-37959420D01*
D10*
%TO.C,U2*%
X238500000Y-40500000D02*
X239900000Y-40500000D01*
X238500000Y-43000000D02*
X238500000Y-40500000D01*
X239900000Y-43000000D02*
X238500000Y-43000000D01*
X239900000Y-40500000D02*
X239900000Y-40600000D01*
X239900000Y-40600000D02*
X239900000Y-43000000D01*
X239700000Y-42700000D02*
G75*
G03*
X239700000Y-42700000I-100000J0D01*
G01*
D12*
%TO.C,C24*%
X226359420Y-51510000D02*
X226640580Y-51510000D01*
X226359420Y-50490000D02*
X226640580Y-50490000D01*
%TO.C,R23*%
X229559420Y-47790000D02*
X229840580Y-47790000D01*
X229559420Y-48810000D02*
X229840580Y-48810000D01*
%TO.C,Q5*%
X222860000Y-36600000D02*
X222860000Y-35950000D01*
X222860000Y-36600000D02*
X222860000Y-37250000D01*
X219740000Y-36600000D02*
X219740000Y-35950000D01*
X219740000Y-36600000D02*
X219740000Y-38275000D01*
%TO.C,C47*%
X256510000Y-41359420D02*
X256510000Y-41640580D01*
X255490000Y-41359420D02*
X255490000Y-41640580D01*
%TO.C,C31*%
X242259420Y-49290000D02*
X242540580Y-49290000D01*
X242259420Y-50310000D02*
X242540580Y-50310000D01*
%TO.C,R10*%
X214540580Y-51810000D02*
X214259420Y-51810000D01*
X214540580Y-50790000D02*
X214259420Y-50790000D01*
%TO.C,C14*%
X242859420Y-41990000D02*
X243140580Y-41990000D01*
X242859420Y-43010000D02*
X243140580Y-43010000D01*
%TO.C,J2*%
X211600000Y-28025000D02*
X210100000Y-28025000D01*
%TO.C,Q9*%
X245700000Y-46440000D02*
X244325000Y-46440000D01*
%TO.C,D1*%
X224385000Y-44640000D02*
X221700000Y-44640000D01*
X221700000Y-46560000D02*
X224385000Y-46560000D01*
X224385000Y-46560000D02*
X224385000Y-44640000D01*
%TO.C,C28*%
X235110000Y-50059420D02*
X235110000Y-50340580D01*
X234090000Y-50059420D02*
X234090000Y-50340580D01*
%TO.C,C15*%
X235159420Y-42090000D02*
X235440580Y-42090000D01*
X235159420Y-43110000D02*
X235440580Y-43110000D01*
%TO.C,C2*%
X239859420Y-40010000D02*
X240140580Y-40010000D01*
X239859420Y-38990000D02*
X240140580Y-38990000D01*
%TO.C,R2*%
X219359420Y-42890000D02*
X219640580Y-42890000D01*
X219359420Y-43910000D02*
X219640580Y-43910000D01*
%TO.C,C42*%
X236590000Y-45959420D02*
X236590000Y-46240580D01*
X237610000Y-45959420D02*
X237610000Y-46240580D01*
%TO.C,C37*%
X228610000Y-32759420D02*
X228610000Y-33040580D01*
X227590000Y-32759420D02*
X227590000Y-33040580D01*
%TO.C,C33*%
X245310000Y-53259420D02*
X245310000Y-53540580D01*
X244290000Y-53259420D02*
X244290000Y-53540580D01*
%TO.C,C48*%
X214540580Y-54810000D02*
X214259420Y-54810000D01*
X214540580Y-53790000D02*
X214259420Y-53790000D01*
%TO.C,C46*%
X255010000Y-41359420D02*
X255010000Y-41640580D01*
X253990000Y-41359420D02*
X253990000Y-41640580D01*
%TO.C,R16*%
X245859420Y-38990000D02*
X246140580Y-38990000D01*
X245859420Y-40010000D02*
X246140580Y-40010000D01*
%TO.C,R1*%
X228610000Y-29940580D02*
X228610000Y-29659420D01*
X227590000Y-29940580D02*
X227590000Y-29659420D01*
%TO.C,C34*%
X247310000Y-53259420D02*
X247310000Y-53540580D01*
X246290000Y-53259420D02*
X246290000Y-53540580D01*
%TO.C,Q7*%
X243760000Y-52500000D02*
X243760000Y-51125000D01*
%TO.C,Q10*%
X211240000Y-35400000D02*
X211240000Y-36775000D01*
%TO.C,C9*%
X214259420Y-49290000D02*
X214540580Y-49290000D01*
X214259420Y-50310000D02*
X214540580Y-50310000D01*
%TO.C,R17*%
X246140580Y-43010000D02*
X245859420Y-43010000D01*
X246140580Y-41990000D02*
X245859420Y-41990000D01*
%TO.C,R51*%
X215810000Y-37140580D02*
X215810000Y-36859420D01*
X214790000Y-37140580D02*
X214790000Y-36859420D01*
%TO.C,C4*%
X216210000Y-44340580D02*
X216210000Y-44059420D01*
X215190000Y-44340580D02*
X215190000Y-44059420D01*
%TO.C,J3*%
X224800000Y-30100000D02*
X224800000Y-28600000D01*
%TO.C,R5*%
X216310000Y-40659420D02*
X216310000Y-40940580D01*
X215290000Y-40659420D02*
X215290000Y-40940580D01*
%TO.C,R41*%
X233610000Y-32359420D02*
X233610000Y-32640580D01*
X232590000Y-32359420D02*
X232590000Y-32640580D01*
%TO.C,R42*%
X235259420Y-28690000D02*
X235540580Y-28690000D01*
X235259420Y-29710000D02*
X235540580Y-29710000D01*
%TO.C,C44*%
X219210000Y-30384420D02*
X219210000Y-30665580D01*
X218190000Y-30384420D02*
X218190000Y-30665580D01*
%TO.C,C16*%
X232440580Y-41610000D02*
X232159420Y-41610000D01*
X232440580Y-40590000D02*
X232159420Y-40590000D01*
%TO.C,Q11*%
X216240000Y-36600000D02*
X216240000Y-35950000D01*
X216240000Y-36600000D02*
X216240000Y-37250000D01*
X219360000Y-36600000D02*
X219360000Y-34925000D01*
X219360000Y-36600000D02*
X219360000Y-37250000D01*
%TO.C,C26*%
X238090000Y-45959420D02*
X238090000Y-46240580D01*
X239110000Y-45959420D02*
X239110000Y-46240580D01*
%TO.C,R12*%
X214259420Y-52290000D02*
X214540580Y-52290000D01*
X214259420Y-53310000D02*
X214540580Y-53310000D01*
%TO.C,L1*%
X219788748Y-50735000D02*
X220311252Y-50735000D01*
X219788748Y-49265000D02*
X220311252Y-49265000D01*
%TO.C,Q6*%
X237040000Y-53100000D02*
X237040000Y-54475000D01*
%TO.C,R19*%
X243140580Y-40490000D02*
X242859420Y-40490000D01*
X243140580Y-41510000D02*
X242859420Y-41510000D01*
%TO.C,L4*%
X236035000Y-46561252D02*
X236035000Y-46038748D01*
X234565000Y-46561252D02*
X234565000Y-46038748D01*
%TO.C,R43*%
X217559420Y-33510000D02*
X217840580Y-33510000D01*
X217559420Y-32490000D02*
X217840580Y-32490000D01*
%TO.C,Q8*%
X234040000Y-32300000D02*
X234040000Y-33675000D01*
%TO.C,R21*%
X232440580Y-42090000D02*
X232159420Y-42090000D01*
X232440580Y-43110000D02*
X232159420Y-43110000D01*
%TO.C,C5*%
X246140580Y-44990000D02*
X245859420Y-44990000D01*
X246140580Y-46010000D02*
X245859420Y-46010000D01*
%TO.C,R48*%
X242540580Y-45810000D02*
X242259420Y-45810000D01*
X242540580Y-44790000D02*
X242259420Y-44790000D01*
%TO.C,R24*%
X229559420Y-45810000D02*
X229840580Y-45810000D01*
X229559420Y-44790000D02*
X229840580Y-44790000D01*
%TO.C,R18*%
X246140580Y-41510000D02*
X245859420Y-41510000D01*
X246140580Y-40490000D02*
X245859420Y-40490000D01*
%TO.C,R14*%
X225810000Y-42140580D02*
X225810000Y-41859420D01*
X224790000Y-42140580D02*
X224790000Y-41859420D01*
%TO.C,Q2*%
X212700000Y-39240000D02*
X211325000Y-39240000D01*
%TO.C,U6*%
X237565000Y-34800000D02*
X237565000Y-36750000D01*
X246435000Y-34800000D02*
X246435000Y-36750000D01*
X237565000Y-34800000D02*
X237565000Y-32850000D01*
X246435000Y-34800000D02*
X246435000Y-31350000D01*
%TO.C,R33*%
X229740580Y-53490000D02*
X229459420Y-53490000D01*
X229740580Y-54510000D02*
X229459420Y-54510000D01*
%TO.C,R6*%
X210710000Y-41340580D02*
X210710000Y-41059420D01*
X209690000Y-41340580D02*
X209690000Y-41059420D01*
%TO.C,R25*%
X223640580Y-53490000D02*
X223359420Y-53490000D01*
X223640580Y-54510000D02*
X223359420Y-54510000D01*
%TO.C,R4*%
X235159420Y-39090000D02*
X235440580Y-39090000D01*
X235159420Y-40110000D02*
X235440580Y-40110000D01*
%TO.C,R35*%
X236610000Y-50059420D02*
X236610000Y-50340580D01*
X235590000Y-50059420D02*
X235590000Y-50340580D01*
%TO.C,C22*%
X219859420Y-48510000D02*
X220140580Y-48510000D01*
X219859420Y-47490000D02*
X220140580Y-47490000D01*
%TO.C,Y1*%
X209300000Y-49900000D02*
X209300000Y-48600000D01*
%TO.C,L5*%
X245538748Y-51535000D02*
X246061252Y-51535000D01*
X245538748Y-50065000D02*
X246061252Y-50065000D01*
%TO.C,R22*%
X234090000Y-53059420D02*
X234090000Y-53340580D01*
X235110000Y-53059420D02*
X235110000Y-53340580D01*
%TO.C,R3*%
X220559420Y-33510000D02*
X220840580Y-33510000D01*
X220559420Y-32490000D02*
X220840580Y-32490000D01*
%TO.C,D5*%
X231350000Y-54600000D02*
X231350000Y-52050000D01*
X233050000Y-54600000D02*
X233050000Y-52050000D01*
X231350000Y-54600000D02*
X233050000Y-54600000D01*
%TO.C,C38*%
X246890000Y-34259420D02*
X246890000Y-34540580D01*
X247910000Y-34259420D02*
X247910000Y-34540580D01*
%TO.C,R54*%
X245859420Y-44510000D02*
X246140580Y-44510000D01*
X245859420Y-43490000D02*
X246140580Y-43490000D01*
%TO.C,R7*%
X215810000Y-34140580D02*
X215810000Y-33859420D01*
X214790000Y-34140580D02*
X214790000Y-33859420D01*
%TO.C,C43*%
X213510000Y-30384420D02*
X213510000Y-30665580D01*
X212490000Y-30384420D02*
X212490000Y-30665580D01*
%TO.C,R30*%
X226640580Y-54510000D02*
X226359420Y-54510000D01*
X226640580Y-53490000D02*
X226359420Y-53490000D01*
D10*
%TO.C,U3*%
X227600000Y-43100000D02*
X227600000Y-40600000D01*
X227600000Y-40600000D02*
X229000000Y-40600000D01*
X229000000Y-40700000D02*
X229000000Y-43100000D01*
X229000000Y-43100000D02*
X227600000Y-43100000D01*
X229000000Y-40600000D02*
X229000000Y-40700000D01*
X228800000Y-42800000D02*
G75*
G03*
X228800000Y-42800000I-100000J0D01*
G01*
D12*
%TO.C,D3*%
X231100000Y-49150000D02*
X228550000Y-49150000D01*
X231100000Y-50850000D02*
X228550000Y-50850000D01*
X231100000Y-50850000D02*
X231100000Y-49150000D01*
%TO.C,C6*%
X210710000Y-44440580D02*
X210710000Y-44159420D01*
X209690000Y-44440580D02*
X209690000Y-44159420D01*
%TO.C,C39*%
X219640580Y-41390000D02*
X219359420Y-41390000D01*
X219640580Y-42410000D02*
X219359420Y-42410000D01*
%TO.C,C20*%
X219710000Y-53640580D02*
X219710000Y-53359420D01*
X218690000Y-53640580D02*
X218690000Y-53359420D01*
%TO.C,C11*%
X218110000Y-50359420D02*
X218110000Y-50640580D01*
X217090000Y-50359420D02*
X217090000Y-50640580D01*
%TO.C,C45*%
X210710000Y-34884420D02*
X210710000Y-35165580D01*
X209690000Y-34884420D02*
X209690000Y-35165580D01*
%TD*%
M02*
