%TF.GenerationSoftware,KiCad,Pcbnew,(6.0.11-0)*%
%TF.CreationDate,2025-10-07T00:59:29-07:00*%
%TF.ProjectId,27M_TX_Board_R1.1,32374d5f-5458-45f4-926f-6172645f5231,rev?*%
%TF.SameCoordinates,Original*%
%TF.FileFunction,Copper,L2,Bot*%
%TF.FilePolarity,Positive*%
%FSLAX46Y46*%
G04 Gerber Fmt 4.6, Leading zero omitted, Abs format (unit mm)*
G04 Created by KiCad (PCBNEW (6.0.11-0)) date 2025-10-07 00:59:29*
%MOMM*%
%LPD*%
G01*
G04 APERTURE LIST*
G04 Aperture macros list*
%AMRoundRect*
0 Rectangle with rounded corners*
0 $1 Rounding radius*
0 $2 $3 $4 $5 $6 $7 $8 $9 X,Y pos of 4 corners*
0 Add a 4 corners polygon primitive as box body*
4,1,4,$2,$3,$4,$5,$6,$7,$8,$9,$2,$3,0*
0 Add four circle primitives for the rounded corners*
1,1,$1+$1,$2,$3*
1,1,$1+$1,$4,$5*
1,1,$1+$1,$6,$7*
1,1,$1+$1,$8,$9*
0 Add four rect primitives between the rounded corners*
20,1,$1+$1,$2,$3,$4,$5,0*
20,1,$1+$1,$4,$5,$6,$7,0*
20,1,$1+$1,$6,$7,$8,$9,0*
20,1,$1+$1,$8,$9,$2,$3,0*%
G04 Aperture macros list end*
%TA.AperFunction,ComponentPad*%
%ADD10RoundRect,0.300000X0.300000X0.300000X-0.300000X0.300000X-0.300000X-0.300000X0.300000X-0.300000X0*%
%TD*%
%TA.AperFunction,ComponentPad*%
%ADD11C,1.200000*%
%TD*%
%TA.AperFunction,ComponentPad*%
%ADD12RoundRect,0.300000X-0.300000X0.300000X-0.300000X-0.300000X0.300000X-0.300000X0.300000X0.300000X0*%
%TD*%
%TA.AperFunction,ViaPad*%
%ADD13C,0.600000*%
%TD*%
%TA.AperFunction,Conductor*%
%ADD14C,0.250000*%
%TD*%
%TA.AperFunction,Conductor*%
%ADD15C,0.400000*%
%TD*%
G04 APERTURE END LIST*
D10*
%TO.P,J1,1,GND*%
%TO.N,VEE*%
X246300000Y-29400000D03*
D11*
%TO.P,J1,2,RESET*%
%TO.N,/Micro/RESET*%
X244800000Y-29400000D03*
%TO.P,J1,3,SCLK*%
%TO.N,/Micro/SCLK*%
X243300000Y-29400000D03*
%TO.P,J1,4,MOSI*%
%TO.N,/Micro/MOSI*%
X241800000Y-29400000D03*
%TO.P,J1,5,MISO*%
%TO.N,/Micro/MISO*%
X240300000Y-29400000D03*
%TD*%
D12*
%TO.P,J2,1,Pin_1*%
%TO.N,/Micro/V_BATT_P*%
X210600000Y-29775000D03*
D11*
%TO.P,J2,2,Pin_2*%
%TO.N,VEE*%
X210600000Y-31275000D03*
%TD*%
D10*
%TO.P,J3,1,Pin_1*%
%TO.N,VCC*%
X223050000Y-29100000D03*
D11*
%TO.P,J3,2,Pin_2*%
%TO.N,VEE*%
X221550000Y-29100000D03*
%TD*%
D13*
%TO.N,/Micro/BATT_VSNS*%
X227900000Y-35800000D03*
X225400000Y-35800000D03*
%TO.N,/Micro/EN_ANALOG_POW*%
X242000000Y-35900000D03*
X226200000Y-34900000D03*
X227900000Y-34900000D03*
X231100000Y-34900000D03*
%TO.N,VCC*%
X227800000Y-44100000D03*
X230600000Y-39300000D03*
X213000000Y-39900000D03*
X230600000Y-44100000D03*
X213000000Y-35200000D03*
X247700000Y-45500000D03*
X251250000Y-32000000D03*
X229200000Y-44100000D03*
%TO.N,/Oscillator/V_BIAS*%
X220300000Y-46000000D03*
X223200000Y-47000000D03*
X227700000Y-48100000D03*
X237800000Y-48700000D03*
X235700000Y-48700000D03*
%TO.N,/Micro/VCC_MICRO*%
X216700000Y-38000000D03*
X217776944Y-39076944D03*
%TO.N,/Micro/SCLK*%
X243300000Y-34900000D03*
%TO.N,/Micro/MISO*%
X240300000Y-34900000D03*
%TO.N,VEE*%
X244300000Y-45300000D03*
X240200000Y-53800000D03*
X226600000Y-48800000D03*
X213000000Y-32100000D03*
X210900000Y-53800000D03*
X218700000Y-41000000D03*
X237100000Y-47700000D03*
X223600000Y-54800000D03*
X233700000Y-52400000D03*
X245800000Y-53600000D03*
X235200000Y-37200000D03*
X229800000Y-34200000D03*
X217600000Y-48900000D03*
X226800000Y-46700000D03*
X246000000Y-49100000D03*
X239500000Y-41800000D03*
X219700000Y-31300000D03*
X247400000Y-36100000D03*
X211300000Y-40800000D03*
X236100000Y-43500000D03*
X221500000Y-37500000D03*
X228700000Y-41900000D03*
X242000000Y-51700000D03*
X211900000Y-50500000D03*
X222800000Y-42400000D03*
X220100000Y-51200000D03*
X224700000Y-48000000D03*
X217600000Y-35700000D03*
X237900000Y-50500000D03*
X241400000Y-38700000D03*
X232400000Y-47800000D03*
X230200000Y-38100000D03*
X227900000Y-54700000D03*
X218400000Y-48000000D03*
X242200000Y-44600000D03*
X243800000Y-43300000D03*
%TO.N,/Antenna/ANT_NET*%
X257400000Y-43500000D03*
X254500000Y-42275000D03*
X256000000Y-42275000D03*
X257400000Y-40400000D03*
X257400000Y-42000000D03*
%TD*%
D14*
%TO.N,/Micro/BATT_VSNS*%
X227900000Y-35800000D02*
X225400000Y-35800000D01*
%TO.N,/Micro/EN_ANALOG_POW*%
X241300000Y-35900000D02*
X241100000Y-36100000D01*
X231200000Y-34900000D02*
X231100000Y-35000000D01*
X242000000Y-35900000D02*
X241300000Y-35900000D01*
X236400000Y-36100000D02*
X235200000Y-34900000D01*
X226200000Y-34900000D02*
X227900000Y-34900000D01*
X241100000Y-36100000D02*
X236400000Y-36100000D01*
X235200000Y-34900000D02*
X231200000Y-34900000D01*
%TO.N,VCC*%
X250500000Y-51500000D02*
X250500000Y-30500000D01*
X252500000Y-52000000D02*
X250000000Y-52000000D01*
X250000000Y-30000000D02*
X253000000Y-30000000D01*
X253000000Y-30000000D02*
X253000000Y-52500000D01*
X250500000Y-30500000D02*
X252500000Y-30500000D01*
D15*
X230600000Y-44100000D02*
X230600000Y-39300000D01*
D14*
X249500000Y-52500000D02*
X249500000Y-29500000D01*
X227800000Y-44100000D02*
X229200000Y-44100000D01*
X249000000Y-46600000D02*
X249000000Y-45900000D01*
X249000000Y-45900000D02*
X248600000Y-45500000D01*
X252500000Y-30500000D02*
X252500000Y-52000000D01*
X251250000Y-32000000D02*
X252000000Y-32000000D01*
X253500000Y-29500000D02*
X253500000Y-53000000D01*
X249000000Y-53000000D02*
X249000000Y-46600000D01*
D15*
X213000000Y-39900000D02*
X213000000Y-35200000D01*
D14*
X252000000Y-32000000D02*
X252000000Y-51500000D01*
X252000000Y-51500000D02*
X250500000Y-51500000D01*
X253000000Y-52500000D02*
X249500000Y-52500000D01*
X250000000Y-52000000D02*
X250000000Y-30000000D01*
X248600000Y-45500000D02*
X247700000Y-45500000D01*
X253500000Y-53000000D02*
X249000000Y-53000000D01*
X249500000Y-29500000D02*
X253500000Y-29500000D01*
%TO.N,/Oscillator/V_BIAS*%
X220300000Y-46000000D02*
X221400000Y-46000000D01*
X221500000Y-46100000D02*
X222400000Y-47000000D01*
X231500000Y-48700000D02*
X235700000Y-48700000D01*
X235700000Y-48700000D02*
X237800000Y-48700000D01*
X230900000Y-48100000D02*
X231500000Y-48700000D01*
X227700000Y-48100000D02*
X230900000Y-48100000D01*
X221400000Y-46000000D02*
X221500000Y-46100000D01*
X222400000Y-47000000D02*
X223200000Y-47000000D01*
D15*
%TO.N,/Micro/VCC_MICRO*%
X217776944Y-39076944D02*
X216700000Y-38000000D01*
D14*
%TO.N,/Micro/SCLK*%
X243300000Y-34900000D02*
X243300000Y-29400000D01*
%TO.N,/Micro/MISO*%
X240300000Y-29400000D02*
X240300000Y-34900000D01*
%TO.N,/Antenna/ANT_NET*%
X257300000Y-40500000D02*
X257400000Y-40400000D01*
%TD*%
%TA.AperFunction,Conductor*%
%TO.N,VEE*%
G36*
X220919004Y-28019685D02*
G01*
X220964759Y-28072489D01*
X220974021Y-28145871D01*
X220972020Y-28157039D01*
X220976124Y-28166913D01*
X221537393Y-28728183D01*
X221551113Y-28735675D01*
X221552918Y-28735546D01*
X221559427Y-28731363D01*
X222120486Y-28170303D01*
X222127978Y-28156583D01*
X222126280Y-28132846D01*
X222141132Y-28064573D01*
X222190537Y-28015168D01*
X222249964Y-28000000D01*
X247876000Y-28000000D01*
X247943039Y-28019685D01*
X247988794Y-28072489D01*
X248000000Y-28124000D01*
X248000000Y-44845046D01*
X247980315Y-44912085D01*
X247927511Y-44957840D01*
X247858353Y-44967784D01*
X247849018Y-44965869D01*
X247843709Y-44963670D01*
X247700000Y-44944750D01*
X247556291Y-44963670D01*
X247548779Y-44966781D01*
X247548777Y-44966782D01*
X247458407Y-45004214D01*
X247422375Y-45019139D01*
X247307379Y-45107379D01*
X247302435Y-45113822D01*
X247262093Y-45166397D01*
X247219139Y-45222375D01*
X247163670Y-45356291D01*
X247144750Y-45500000D01*
X247163670Y-45643709D01*
X247166781Y-45651221D01*
X247166782Y-45651223D01*
X247194972Y-45719280D01*
X247219139Y-45777625D01*
X247224086Y-45784072D01*
X247294242Y-45875500D01*
X247307379Y-45892621D01*
X247422375Y-45980861D01*
X247429887Y-45983972D01*
X247429886Y-45983972D01*
X247548777Y-46033218D01*
X247548779Y-46033219D01*
X247556291Y-46036330D01*
X247700000Y-46055250D01*
X247843709Y-46036330D01*
X247846348Y-46035237D01*
X247913759Y-46036843D01*
X247971620Y-46076006D01*
X247999123Y-46140235D01*
X248000000Y-46154954D01*
X248000000Y-54876000D01*
X247980315Y-54943039D01*
X247927511Y-54988794D01*
X247876000Y-55000000D01*
X210551362Y-55000000D01*
X210484323Y-54980315D01*
X210463681Y-54963681D01*
X209036319Y-53536319D01*
X209002834Y-53474996D01*
X209000000Y-53448638D01*
X209000000Y-48100000D01*
X227144750Y-48100000D01*
X227163670Y-48243709D01*
X227166781Y-48251221D01*
X227166782Y-48251223D01*
X227192711Y-48313822D01*
X227219139Y-48377625D01*
X227224086Y-48384072D01*
X227294242Y-48475500D01*
X227307379Y-48492621D01*
X227422375Y-48580861D01*
X227429887Y-48583972D01*
X227429886Y-48583972D01*
X227548777Y-48633218D01*
X227548779Y-48633219D01*
X227556291Y-48636330D01*
X227700000Y-48655250D01*
X227843709Y-48636330D01*
X227851221Y-48633219D01*
X227851223Y-48633218D01*
X227970114Y-48583972D01*
X227970113Y-48583972D01*
X227977625Y-48580861D01*
X228009645Y-48556291D01*
X228081540Y-48501124D01*
X228146710Y-48475930D01*
X228157027Y-48475500D01*
X230693101Y-48475500D01*
X230760140Y-48495185D01*
X230780782Y-48511819D01*
X231196802Y-48927839D01*
X231211929Y-48946568D01*
X231212870Y-48947602D01*
X231218428Y-48956210D01*
X231226473Y-48962552D01*
X231244555Y-48976807D01*
X231248958Y-48980720D01*
X231249017Y-48980650D01*
X231252920Y-48983957D01*
X231256538Y-48987575D01*
X231260700Y-48990549D01*
X231272077Y-48998679D01*
X231276728Y-49002170D01*
X231316600Y-49033603D01*
X231325149Y-49036605D01*
X231332519Y-49041872D01*
X231342341Y-49044809D01*
X231342340Y-49044809D01*
X231381114Y-49056405D01*
X231386672Y-49058211D01*
X231427183Y-49072438D01*
X231427193Y-49072440D01*
X231434548Y-49075023D01*
X231440055Y-49075500D01*
X231442738Y-49075500D01*
X231445340Y-49075613D01*
X231445415Y-49075635D01*
X231445408Y-49075804D01*
X231446132Y-49075850D01*
X231452286Y-49077690D01*
X231462525Y-49077288D01*
X231462528Y-49077288D01*
X231505580Y-49075596D01*
X231510448Y-49075500D01*
X235242973Y-49075500D01*
X235310012Y-49095185D01*
X235318460Y-49101124D01*
X235422375Y-49180861D01*
X235429887Y-49183972D01*
X235429886Y-49183972D01*
X235548777Y-49233218D01*
X235548779Y-49233219D01*
X235556291Y-49236330D01*
X235700000Y-49255250D01*
X235843709Y-49236330D01*
X235851221Y-49233219D01*
X235851223Y-49233218D01*
X235970114Y-49183972D01*
X235970113Y-49183972D01*
X235977625Y-49180861D01*
X236081539Y-49101124D01*
X236146710Y-49075930D01*
X236157027Y-49075500D01*
X237342973Y-49075500D01*
X237410012Y-49095185D01*
X237418460Y-49101124D01*
X237522375Y-49180861D01*
X237529887Y-49183972D01*
X237529886Y-49183972D01*
X237648777Y-49233218D01*
X237648779Y-49233219D01*
X237656291Y-49236330D01*
X237800000Y-49255250D01*
X237943709Y-49236330D01*
X237951221Y-49233219D01*
X237951223Y-49233218D01*
X238070114Y-49183972D01*
X238070113Y-49183972D01*
X238077625Y-49180861D01*
X238192621Y-49092621D01*
X238204387Y-49077288D01*
X238275914Y-48984072D01*
X238280861Y-48977625D01*
X238336330Y-48843709D01*
X238355250Y-48700000D01*
X238336330Y-48556291D01*
X238317910Y-48511819D01*
X238283972Y-48429886D01*
X238280861Y-48422375D01*
X238240760Y-48370114D01*
X238197565Y-48313822D01*
X238192621Y-48307379D01*
X238077625Y-48219139D01*
X238041593Y-48204214D01*
X237951223Y-48166782D01*
X237951221Y-48166781D01*
X237943709Y-48163670D01*
X237800000Y-48144750D01*
X237656291Y-48163670D01*
X237648779Y-48166781D01*
X237648777Y-48166782D01*
X237558407Y-48204214D01*
X237522375Y-48219139D01*
X237515928Y-48224086D01*
X237418460Y-48298876D01*
X237353290Y-48324070D01*
X237342973Y-48324500D01*
X236157027Y-48324500D01*
X236089988Y-48304815D01*
X236081540Y-48298876D01*
X235984072Y-48224086D01*
X235977625Y-48219139D01*
X235941593Y-48204214D01*
X235851223Y-48166782D01*
X235851221Y-48166781D01*
X235843709Y-48163670D01*
X235700000Y-48144750D01*
X235556291Y-48163670D01*
X235548779Y-48166781D01*
X235548777Y-48166782D01*
X235458407Y-48204214D01*
X235422375Y-48219139D01*
X235415928Y-48224086D01*
X235318460Y-48298876D01*
X235253290Y-48324070D01*
X235242973Y-48324500D01*
X231706899Y-48324500D01*
X231639860Y-48304815D01*
X231619218Y-48288181D01*
X231203198Y-47872161D01*
X231188071Y-47853432D01*
X231187130Y-47852398D01*
X231181572Y-47843790D01*
X231155445Y-47823193D01*
X231151042Y-47819280D01*
X231150983Y-47819350D01*
X231147080Y-47816043D01*
X231143462Y-47812425D01*
X231127920Y-47801319D01*
X231123272Y-47797830D01*
X231083400Y-47766397D01*
X231074851Y-47763395D01*
X231067481Y-47758128D01*
X231018877Y-47743592D01*
X231013324Y-47741788D01*
X230972817Y-47727563D01*
X230972814Y-47727562D01*
X230965452Y-47724977D01*
X230959945Y-47724500D01*
X230957261Y-47724500D01*
X230954659Y-47724387D01*
X230954585Y-47724365D01*
X230954592Y-47724196D01*
X230953867Y-47724150D01*
X230947713Y-47722310D01*
X230937474Y-47722712D01*
X230937471Y-47722712D01*
X230894419Y-47724404D01*
X230889551Y-47724500D01*
X228157027Y-47724500D01*
X228089988Y-47704815D01*
X228081540Y-47698876D01*
X227984072Y-47624086D01*
X227977625Y-47619139D01*
X227941593Y-47604214D01*
X227851223Y-47566782D01*
X227851221Y-47566781D01*
X227843709Y-47563670D01*
X227700000Y-47544750D01*
X227556291Y-47563670D01*
X227548779Y-47566781D01*
X227548777Y-47566782D01*
X227458407Y-47604214D01*
X227422375Y-47619139D01*
X227307379Y-47707379D01*
X227302435Y-47713822D01*
X227291891Y-47727563D01*
X227219139Y-47822375D01*
X227163670Y-47956291D01*
X227144750Y-48100000D01*
X209000000Y-48100000D01*
X209000000Y-46000000D01*
X219744750Y-46000000D01*
X219763670Y-46143709D01*
X219766781Y-46151221D01*
X219766782Y-46151223D01*
X219804214Y-46241593D01*
X219819139Y-46277625D01*
X219824086Y-46284072D01*
X219894242Y-46375500D01*
X219907379Y-46392621D01*
X220022375Y-46480861D01*
X220029887Y-46483972D01*
X220029886Y-46483972D01*
X220148777Y-46533218D01*
X220148779Y-46533219D01*
X220156291Y-46536330D01*
X220300000Y-46555250D01*
X220443709Y-46536330D01*
X220451221Y-46533219D01*
X220451223Y-46533218D01*
X220570114Y-46483972D01*
X220570113Y-46483972D01*
X220577625Y-46480861D01*
X220681539Y-46401124D01*
X220746710Y-46375930D01*
X220757027Y-46375500D01*
X221193101Y-46375500D01*
X221260140Y-46395185D01*
X221280782Y-46411819D01*
X222096802Y-47227839D01*
X222111929Y-47246568D01*
X222112870Y-47247602D01*
X222118428Y-47256210D01*
X222126473Y-47262552D01*
X222144555Y-47276807D01*
X222148958Y-47280720D01*
X222149017Y-47280650D01*
X222152920Y-47283957D01*
X222156538Y-47287575D01*
X222160700Y-47290549D01*
X222172077Y-47298679D01*
X222176728Y-47302170D01*
X222216600Y-47333603D01*
X222225149Y-47336605D01*
X222232519Y-47341872D01*
X222242341Y-47344809D01*
X222242340Y-47344809D01*
X222281114Y-47356405D01*
X222286672Y-47358211D01*
X222327183Y-47372438D01*
X222327193Y-47372440D01*
X222334548Y-47375023D01*
X222340055Y-47375500D01*
X222342738Y-47375500D01*
X222345340Y-47375613D01*
X222345415Y-47375635D01*
X222345408Y-47375804D01*
X222346132Y-47375850D01*
X222352286Y-47377690D01*
X222362525Y-47377288D01*
X222362528Y-47377288D01*
X222405580Y-47375596D01*
X222410448Y-47375500D01*
X222742973Y-47375500D01*
X222810012Y-47395185D01*
X222818460Y-47401124D01*
X222922375Y-47480861D01*
X222929887Y-47483972D01*
X222929886Y-47483972D01*
X223048777Y-47533218D01*
X223048779Y-47533219D01*
X223056291Y-47536330D01*
X223200000Y-47555250D01*
X223343709Y-47536330D01*
X223351221Y-47533219D01*
X223351223Y-47533218D01*
X223470114Y-47483972D01*
X223470113Y-47483972D01*
X223477625Y-47480861D01*
X223592621Y-47392621D01*
X223604387Y-47377288D01*
X223675914Y-47284072D01*
X223680861Y-47277625D01*
X223736330Y-47143709D01*
X223755250Y-47000000D01*
X223736330Y-46856291D01*
X223680861Y-46722375D01*
X223663125Y-46699261D01*
X223597565Y-46613822D01*
X223592621Y-46607379D01*
X223477625Y-46519139D01*
X223441593Y-46504214D01*
X223351223Y-46466782D01*
X223351221Y-46466781D01*
X223343709Y-46463670D01*
X223200000Y-46444750D01*
X223056291Y-46463670D01*
X223048779Y-46466781D01*
X223048777Y-46466782D01*
X222958407Y-46504214D01*
X222922375Y-46519139D01*
X222915928Y-46524086D01*
X222818460Y-46598876D01*
X222753290Y-46624070D01*
X222742973Y-46624500D01*
X222606899Y-46624500D01*
X222539860Y-46604815D01*
X222519218Y-46588181D01*
X221703198Y-45772161D01*
X221688071Y-45753432D01*
X221687130Y-45752398D01*
X221681572Y-45743790D01*
X221655445Y-45723193D01*
X221651042Y-45719280D01*
X221650983Y-45719350D01*
X221647080Y-45716043D01*
X221643462Y-45712425D01*
X221627920Y-45701319D01*
X221623272Y-45697830D01*
X221583400Y-45666397D01*
X221574851Y-45663395D01*
X221567481Y-45658128D01*
X221518877Y-45643592D01*
X221513324Y-45641788D01*
X221472817Y-45627563D01*
X221472814Y-45627562D01*
X221465452Y-45624977D01*
X221459945Y-45624500D01*
X221457261Y-45624500D01*
X221454659Y-45624387D01*
X221454585Y-45624365D01*
X221454592Y-45624196D01*
X221453867Y-45624150D01*
X221447713Y-45622310D01*
X221437474Y-45622712D01*
X221437471Y-45622712D01*
X221394419Y-45624404D01*
X221389551Y-45624500D01*
X220757027Y-45624500D01*
X220689988Y-45604815D01*
X220681540Y-45598876D01*
X220584072Y-45524086D01*
X220577625Y-45519139D01*
X220531419Y-45500000D01*
X220451223Y-45466782D01*
X220451221Y-45466781D01*
X220443709Y-45463670D01*
X220300000Y-45444750D01*
X220156291Y-45463670D01*
X220148779Y-45466781D01*
X220148777Y-45466782D01*
X220068581Y-45500000D01*
X220022375Y-45519139D01*
X219907379Y-45607379D01*
X219902435Y-45613822D01*
X219891891Y-45627563D01*
X219819139Y-45722375D01*
X219763670Y-45856291D01*
X219744750Y-46000000D01*
X209000000Y-46000000D01*
X209000000Y-44100000D01*
X227244750Y-44100000D01*
X227263670Y-44243709D01*
X227319139Y-44377625D01*
X227324086Y-44384072D01*
X227394242Y-44475500D01*
X227407379Y-44492621D01*
X227522375Y-44580861D01*
X227529887Y-44583972D01*
X227529886Y-44583972D01*
X227648777Y-44633218D01*
X227648779Y-44633219D01*
X227656291Y-44636330D01*
X227800000Y-44655250D01*
X227943709Y-44636330D01*
X227951221Y-44633219D01*
X227951223Y-44633218D01*
X228070114Y-44583972D01*
X228070113Y-44583972D01*
X228077625Y-44580861D01*
X228181539Y-44501124D01*
X228246710Y-44475930D01*
X228257027Y-44475500D01*
X228742973Y-44475500D01*
X228810012Y-44495185D01*
X228818460Y-44501124D01*
X228922375Y-44580861D01*
X228929887Y-44583972D01*
X228929886Y-44583972D01*
X229048777Y-44633218D01*
X229048779Y-44633219D01*
X229056291Y-44636330D01*
X229200000Y-44655250D01*
X229343709Y-44636330D01*
X229351221Y-44633219D01*
X229351223Y-44633218D01*
X229470114Y-44583972D01*
X229470113Y-44583972D01*
X229477625Y-44580861D01*
X229592621Y-44492621D01*
X229605759Y-44475500D01*
X229675914Y-44384072D01*
X229680861Y-44377625D01*
X229736330Y-44243709D01*
X229755250Y-44100000D01*
X230044750Y-44100000D01*
X230063670Y-44243709D01*
X230119139Y-44377625D01*
X230124086Y-44384072D01*
X230194242Y-44475500D01*
X230207379Y-44492621D01*
X230322375Y-44580861D01*
X230329887Y-44583972D01*
X230329886Y-44583972D01*
X230448777Y-44633218D01*
X230448779Y-44633219D01*
X230456291Y-44636330D01*
X230600000Y-44655250D01*
X230743709Y-44636330D01*
X230751221Y-44633219D01*
X230751223Y-44633218D01*
X230870114Y-44583972D01*
X230870113Y-44583972D01*
X230877625Y-44580861D01*
X230992621Y-44492621D01*
X231005759Y-44475500D01*
X231075914Y-44384072D01*
X231080861Y-44377625D01*
X231136330Y-44243709D01*
X231155250Y-44100000D01*
X231136330Y-43956291D01*
X231080861Y-43822375D01*
X231075914Y-43815928D01*
X231071848Y-43808885D01*
X231073032Y-43808201D01*
X231050930Y-43751036D01*
X231050500Y-43740715D01*
X231050500Y-39659285D01*
X231070185Y-39592246D01*
X231075832Y-39584215D01*
X231075916Y-39584069D01*
X231080861Y-39577625D01*
X231096149Y-39540715D01*
X231133218Y-39451223D01*
X231133219Y-39451221D01*
X231136330Y-39443709D01*
X231155250Y-39300000D01*
X231136330Y-39156291D01*
X231080861Y-39022375D01*
X230992621Y-38907379D01*
X230877625Y-38819139D01*
X230814210Y-38792872D01*
X230751223Y-38766782D01*
X230751221Y-38766781D01*
X230743709Y-38763670D01*
X230600000Y-38744750D01*
X230456291Y-38763670D01*
X230448779Y-38766781D01*
X230448777Y-38766782D01*
X230385790Y-38792872D01*
X230322375Y-38819139D01*
X230207379Y-38907379D01*
X230119139Y-39022375D01*
X230063670Y-39156291D01*
X230044750Y-39300000D01*
X230063670Y-39443709D01*
X230066781Y-39451221D01*
X230066782Y-39451223D01*
X230103851Y-39540715D01*
X230119139Y-39577625D01*
X230124086Y-39584072D01*
X230128152Y-39591115D01*
X230126968Y-39591799D01*
X230149070Y-39648964D01*
X230149500Y-39659285D01*
X230149500Y-43740715D01*
X230129815Y-43807754D01*
X230124168Y-43815785D01*
X230124084Y-43815931D01*
X230119139Y-43822375D01*
X230063670Y-43956291D01*
X230044750Y-44100000D01*
X229755250Y-44100000D01*
X229736330Y-43956291D01*
X229680861Y-43822375D01*
X229618201Y-43740715D01*
X229597565Y-43713822D01*
X229592621Y-43707379D01*
X229477625Y-43619139D01*
X229441593Y-43604214D01*
X229351223Y-43566782D01*
X229351221Y-43566781D01*
X229343709Y-43563670D01*
X229200000Y-43544750D01*
X229056291Y-43563670D01*
X229048779Y-43566781D01*
X229048777Y-43566782D01*
X228958407Y-43604214D01*
X228922375Y-43619139D01*
X228915928Y-43624086D01*
X228818460Y-43698876D01*
X228753290Y-43724070D01*
X228742973Y-43724500D01*
X228257027Y-43724500D01*
X228189988Y-43704815D01*
X228181540Y-43698876D01*
X228084072Y-43624086D01*
X228077625Y-43619139D01*
X228041593Y-43604214D01*
X227951223Y-43566782D01*
X227951221Y-43566781D01*
X227943709Y-43563670D01*
X227800000Y-43544750D01*
X227656291Y-43563670D01*
X227648779Y-43566781D01*
X227648777Y-43566782D01*
X227558407Y-43604214D01*
X227522375Y-43619139D01*
X227407379Y-43707379D01*
X227402435Y-43713822D01*
X227381799Y-43740715D01*
X227319139Y-43822375D01*
X227263670Y-43956291D01*
X227244750Y-44100000D01*
X209000000Y-44100000D01*
X209000000Y-39900000D01*
X212444750Y-39900000D01*
X212463670Y-40043709D01*
X212519139Y-40177625D01*
X212607379Y-40292621D01*
X212722375Y-40380861D01*
X212729887Y-40383972D01*
X212729886Y-40383972D01*
X212848777Y-40433218D01*
X212848779Y-40433219D01*
X212856291Y-40436330D01*
X213000000Y-40455250D01*
X213143709Y-40436330D01*
X213151221Y-40433219D01*
X213151223Y-40433218D01*
X213270114Y-40383972D01*
X213270113Y-40383972D01*
X213277625Y-40380861D01*
X213392621Y-40292621D01*
X213480861Y-40177625D01*
X213536330Y-40043709D01*
X213555250Y-39900000D01*
X213536330Y-39756291D01*
X213480861Y-39622375D01*
X213475914Y-39615928D01*
X213471848Y-39608885D01*
X213473032Y-39608201D01*
X213450930Y-39551036D01*
X213450500Y-39540715D01*
X213450500Y-38000000D01*
X216144750Y-38000000D01*
X216163670Y-38143709D01*
X216219139Y-38277625D01*
X216307379Y-38392621D01*
X216422375Y-38480861D01*
X216429887Y-38483972D01*
X216429886Y-38483972D01*
X216548777Y-38533218D01*
X216548779Y-38533219D01*
X216556291Y-38536330D01*
X216564353Y-38537391D01*
X216572200Y-38539494D01*
X216571847Y-38540813D01*
X216627905Y-38565615D01*
X216635501Y-38572604D01*
X217204340Y-39141443D01*
X217237825Y-39202766D01*
X217239511Y-39212436D01*
X217239552Y-39212590D01*
X217240614Y-39220653D01*
X217296083Y-39354569D01*
X217384323Y-39469565D01*
X217499319Y-39557805D01*
X217506831Y-39560916D01*
X217506830Y-39560916D01*
X217625721Y-39610162D01*
X217625723Y-39610163D01*
X217633235Y-39613274D01*
X217776944Y-39632194D01*
X217920653Y-39613274D01*
X217928165Y-39610163D01*
X217928167Y-39610162D01*
X218047058Y-39560916D01*
X218047057Y-39560916D01*
X218054569Y-39557805D01*
X218169565Y-39469565D01*
X218257805Y-39354569D01*
X218313274Y-39220653D01*
X218332194Y-39076944D01*
X218313274Y-38933235D01*
X218302565Y-38907379D01*
X218260916Y-38806830D01*
X218257805Y-38799319D01*
X218169565Y-38684323D01*
X218054569Y-38596083D01*
X217981012Y-38565615D01*
X217928167Y-38543726D01*
X217928165Y-38543725D01*
X217920653Y-38540614D01*
X217912591Y-38539553D01*
X217904744Y-38537450D01*
X217905097Y-38536131D01*
X217849039Y-38511329D01*
X217841443Y-38504340D01*
X217272604Y-37935501D01*
X217239119Y-37874178D01*
X217237433Y-37864508D01*
X217237391Y-37864353D01*
X217236330Y-37856291D01*
X217180861Y-37722375D01*
X217092621Y-37607379D01*
X216977625Y-37519139D01*
X216941593Y-37504214D01*
X216851223Y-37466782D01*
X216851221Y-37466781D01*
X216843709Y-37463670D01*
X216700000Y-37444750D01*
X216556291Y-37463670D01*
X216548779Y-37466781D01*
X216548777Y-37466782D01*
X216458407Y-37504214D01*
X216422375Y-37519139D01*
X216307379Y-37607379D01*
X216219139Y-37722375D01*
X216163670Y-37856291D01*
X216144750Y-38000000D01*
X213450500Y-38000000D01*
X213450500Y-35800000D01*
X224844750Y-35800000D01*
X224863670Y-35943709D01*
X224919139Y-36077625D01*
X224924086Y-36084072D01*
X224994242Y-36175500D01*
X225007379Y-36192621D01*
X225122375Y-36280861D01*
X225129887Y-36283972D01*
X225129886Y-36283972D01*
X225248777Y-36333218D01*
X225248779Y-36333219D01*
X225256291Y-36336330D01*
X225400000Y-36355250D01*
X225543709Y-36336330D01*
X225551221Y-36333219D01*
X225551223Y-36333218D01*
X225670114Y-36283972D01*
X225670113Y-36283972D01*
X225677625Y-36280861D01*
X225781539Y-36201124D01*
X225846710Y-36175930D01*
X225857027Y-36175500D01*
X227442973Y-36175500D01*
X227510012Y-36195185D01*
X227518460Y-36201124D01*
X227622375Y-36280861D01*
X227629887Y-36283972D01*
X227629886Y-36283972D01*
X227748777Y-36333218D01*
X227748779Y-36333219D01*
X227756291Y-36336330D01*
X227900000Y-36355250D01*
X228043709Y-36336330D01*
X228051221Y-36333219D01*
X228051223Y-36333218D01*
X228170114Y-36283972D01*
X228170113Y-36283972D01*
X228177625Y-36280861D01*
X228292621Y-36192621D01*
X228305759Y-36175500D01*
X228375914Y-36084072D01*
X228380861Y-36077625D01*
X228436330Y-35943709D01*
X228455250Y-35800000D01*
X228436330Y-35656291D01*
X228430366Y-35641891D01*
X228388756Y-35541436D01*
X228380861Y-35522375D01*
X228365560Y-35502435D01*
X228306516Y-35425487D01*
X228281322Y-35360317D01*
X228295360Y-35291873D01*
X228306516Y-35274513D01*
X228375914Y-35184072D01*
X228380861Y-35177625D01*
X228427779Y-35064354D01*
X228433218Y-35051223D01*
X228433219Y-35051221D01*
X228436330Y-35043709D01*
X228455250Y-34900000D01*
X230544750Y-34900000D01*
X230563670Y-35043709D01*
X230566781Y-35051221D01*
X230566782Y-35051223D01*
X230572221Y-35064354D01*
X230619139Y-35177625D01*
X230624086Y-35184072D01*
X230694242Y-35275500D01*
X230707379Y-35292621D01*
X230822375Y-35380861D01*
X230829887Y-35383972D01*
X230829886Y-35383972D01*
X230948777Y-35433218D01*
X230948779Y-35433219D01*
X230956291Y-35436330D01*
X231100000Y-35455250D01*
X231243709Y-35436330D01*
X231251221Y-35433219D01*
X231251223Y-35433218D01*
X231370114Y-35383972D01*
X231370113Y-35383972D01*
X231377625Y-35380861D01*
X231481539Y-35301124D01*
X231546710Y-35275930D01*
X231557027Y-35275500D01*
X234993101Y-35275500D01*
X235060140Y-35295185D01*
X235080782Y-35311819D01*
X236096802Y-36327839D01*
X236111929Y-36346568D01*
X236112870Y-36347602D01*
X236118428Y-36356210D01*
X236126473Y-36362552D01*
X236144555Y-36376807D01*
X236148958Y-36380720D01*
X236149017Y-36380650D01*
X236152920Y-36383957D01*
X236156538Y-36387575D01*
X236160700Y-36390549D01*
X236172077Y-36398679D01*
X236176728Y-36402170D01*
X236216600Y-36433603D01*
X236225149Y-36436605D01*
X236232519Y-36441872D01*
X236242341Y-36444809D01*
X236242340Y-36444809D01*
X236281114Y-36456405D01*
X236286672Y-36458211D01*
X236327183Y-36472438D01*
X236327193Y-36472440D01*
X236334548Y-36475023D01*
X236340055Y-36475500D01*
X236342738Y-36475500D01*
X236345340Y-36475613D01*
X236345415Y-36475635D01*
X236345408Y-36475804D01*
X236346132Y-36475850D01*
X236352286Y-36477690D01*
X236362525Y-36477288D01*
X236362528Y-36477288D01*
X236405580Y-36475596D01*
X236410448Y-36475500D01*
X241046716Y-36475500D01*
X241070651Y-36478047D01*
X241072052Y-36478113D01*
X241082066Y-36480269D01*
X241092239Y-36479065D01*
X241115102Y-36476359D01*
X241120984Y-36476012D01*
X241120977Y-36475922D01*
X241126082Y-36475500D01*
X241131193Y-36475500D01*
X241150053Y-36472361D01*
X241155832Y-36471539D01*
X241196032Y-36466781D01*
X241196034Y-36466780D01*
X241206210Y-36465576D01*
X241214377Y-36461654D01*
X241223313Y-36460167D01*
X241267958Y-36436077D01*
X241273163Y-36433425D01*
X241311867Y-36414840D01*
X241311866Y-36414840D01*
X241318900Y-36411463D01*
X241323131Y-36407906D01*
X241325017Y-36406020D01*
X241326947Y-36404249D01*
X241327000Y-36404221D01*
X241327117Y-36404348D01*
X241327674Y-36403857D01*
X241333329Y-36400806D01*
X241342811Y-36390549D01*
X241369538Y-36361635D01*
X241372914Y-36358124D01*
X241419221Y-36311818D01*
X241480544Y-36278334D01*
X241506901Y-36275500D01*
X241542973Y-36275500D01*
X241610012Y-36295185D01*
X241618460Y-36301124D01*
X241688998Y-36355250D01*
X241722375Y-36380861D01*
X241729887Y-36383972D01*
X241729886Y-36383972D01*
X241848777Y-36433218D01*
X241848779Y-36433219D01*
X241856291Y-36436330D01*
X242000000Y-36455250D01*
X242143709Y-36436330D01*
X242151221Y-36433219D01*
X242151223Y-36433218D01*
X242270114Y-36383972D01*
X242270113Y-36383972D01*
X242277625Y-36380861D01*
X242392621Y-36292621D01*
X242405759Y-36275500D01*
X242475914Y-36184072D01*
X242480861Y-36177625D01*
X242495786Y-36141593D01*
X242533218Y-36051223D01*
X242533219Y-36051221D01*
X242536330Y-36043709D01*
X242555250Y-35900000D01*
X242536330Y-35756291D01*
X242480861Y-35622375D01*
X242432450Y-35559285D01*
X242397565Y-35513822D01*
X242392621Y-35507379D01*
X242371426Y-35491115D01*
X242284072Y-35424086D01*
X242277625Y-35419139D01*
X242237297Y-35402435D01*
X242151223Y-35366782D01*
X242151221Y-35366781D01*
X242143709Y-35363670D01*
X242000000Y-35344750D01*
X241856291Y-35363670D01*
X241848779Y-35366781D01*
X241848777Y-35366782D01*
X241762703Y-35402435D01*
X241722375Y-35419139D01*
X241715928Y-35424086D01*
X241618460Y-35498876D01*
X241553290Y-35524070D01*
X241542973Y-35524500D01*
X241353285Y-35524500D01*
X241329359Y-35521953D01*
X241327951Y-35521887D01*
X241317934Y-35519730D01*
X241307759Y-35520934D01*
X241307754Y-35520934D01*
X241284891Y-35523640D01*
X241279014Y-35523987D01*
X241279022Y-35524079D01*
X241273927Y-35524500D01*
X241268807Y-35524500D01*
X241263760Y-35525340D01*
X241263749Y-35525341D01*
X241249981Y-35527633D01*
X241244198Y-35528456D01*
X241203970Y-35533217D01*
X241203963Y-35533219D01*
X241193791Y-35534423D01*
X241185622Y-35538346D01*
X241176687Y-35539833D01*
X241167667Y-35544700D01*
X241132047Y-35563920D01*
X241126841Y-35566572D01*
X241088139Y-35585156D01*
X241088133Y-35585160D01*
X241081100Y-35588537D01*
X241076869Y-35592094D01*
X241074983Y-35593980D01*
X241073053Y-35595751D01*
X241073000Y-35595779D01*
X241072883Y-35595652D01*
X241072326Y-35596143D01*
X241066671Y-35599194D01*
X241059711Y-35606723D01*
X241059710Y-35606724D01*
X241030447Y-35638381D01*
X241027072Y-35641891D01*
X240980782Y-35688181D01*
X240919459Y-35721666D01*
X240893101Y-35724500D01*
X236606899Y-35724500D01*
X236539860Y-35704815D01*
X236519218Y-35688181D01*
X235503198Y-34672161D01*
X235488071Y-34653432D01*
X235487130Y-34652398D01*
X235481572Y-34643790D01*
X235455445Y-34623193D01*
X235451042Y-34619280D01*
X235450983Y-34619350D01*
X235447080Y-34616043D01*
X235443462Y-34612425D01*
X235427920Y-34601319D01*
X235423272Y-34597830D01*
X235383400Y-34566397D01*
X235374851Y-34563395D01*
X235367481Y-34558128D01*
X235318877Y-34543592D01*
X235313324Y-34541788D01*
X235272817Y-34527563D01*
X235272814Y-34527562D01*
X235265452Y-34524977D01*
X235259945Y-34524500D01*
X235257261Y-34524500D01*
X235254659Y-34524387D01*
X235254585Y-34524365D01*
X235254592Y-34524196D01*
X235253867Y-34524150D01*
X235247713Y-34522310D01*
X235237474Y-34522712D01*
X235237471Y-34522712D01*
X235194419Y-34524404D01*
X235189551Y-34524500D01*
X231557027Y-34524500D01*
X231489988Y-34504815D01*
X231481540Y-34498876D01*
X231384072Y-34424086D01*
X231377625Y-34419139D01*
X231341593Y-34404214D01*
X231251223Y-34366782D01*
X231251221Y-34366781D01*
X231243709Y-34363670D01*
X231100000Y-34344750D01*
X230956291Y-34363670D01*
X230948779Y-34366781D01*
X230948777Y-34366782D01*
X230858407Y-34404214D01*
X230822375Y-34419139D01*
X230707379Y-34507379D01*
X230702435Y-34513822D01*
X230691891Y-34527563D01*
X230619139Y-34622375D01*
X230616028Y-34629886D01*
X230577010Y-34724086D01*
X230563670Y-34756291D01*
X230544750Y-34900000D01*
X228455250Y-34900000D01*
X228436330Y-34756291D01*
X228422991Y-34724086D01*
X228383972Y-34629886D01*
X228380861Y-34622375D01*
X228308109Y-34527563D01*
X228297565Y-34513822D01*
X228292621Y-34507379D01*
X228177625Y-34419139D01*
X228141593Y-34404214D01*
X228051223Y-34366782D01*
X228051221Y-34366781D01*
X228043709Y-34363670D01*
X227900000Y-34344750D01*
X227756291Y-34363670D01*
X227748779Y-34366781D01*
X227748777Y-34366782D01*
X227658407Y-34404214D01*
X227622375Y-34419139D01*
X227615928Y-34424086D01*
X227518460Y-34498876D01*
X227453290Y-34524070D01*
X227442973Y-34524500D01*
X226657027Y-34524500D01*
X226589988Y-34504815D01*
X226581540Y-34498876D01*
X226484072Y-34424086D01*
X226477625Y-34419139D01*
X226441593Y-34404214D01*
X226351223Y-34366782D01*
X226351221Y-34366781D01*
X226343709Y-34363670D01*
X226200000Y-34344750D01*
X226056291Y-34363670D01*
X226048779Y-34366781D01*
X226048777Y-34366782D01*
X225958407Y-34404214D01*
X225922375Y-34419139D01*
X225807379Y-34507379D01*
X225802435Y-34513822D01*
X225791891Y-34527563D01*
X225719139Y-34622375D01*
X225716028Y-34629886D01*
X225677010Y-34724086D01*
X225663670Y-34756291D01*
X225644750Y-34900000D01*
X225663670Y-35043709D01*
X225666783Y-35051224D01*
X225685419Y-35096217D01*
X225692888Y-35165687D01*
X225661612Y-35228166D01*
X225601523Y-35263817D01*
X225543735Y-35263473D01*
X225543709Y-35263670D01*
X225542138Y-35263463D01*
X225542137Y-35263463D01*
X225535649Y-35262609D01*
X225535646Y-35262608D01*
X225408059Y-35245811D01*
X225400000Y-35244750D01*
X225256291Y-35263670D01*
X225248779Y-35266781D01*
X225248777Y-35266782D01*
X225230113Y-35274513D01*
X225122375Y-35319139D01*
X225007379Y-35407379D01*
X225002435Y-35413822D01*
X224993484Y-35425487D01*
X224919139Y-35522375D01*
X224911244Y-35541436D01*
X224869635Y-35641891D01*
X224863670Y-35656291D01*
X224844750Y-35800000D01*
X213450500Y-35800000D01*
X213450500Y-35559285D01*
X213470185Y-35492246D01*
X213475832Y-35484215D01*
X213475916Y-35484069D01*
X213480861Y-35477625D01*
X213507289Y-35413822D01*
X213533218Y-35351223D01*
X213533219Y-35351221D01*
X213536330Y-35343709D01*
X213555250Y-35200000D01*
X213536330Y-35056291D01*
X213531119Y-35043709D01*
X213483972Y-34929886D01*
X213480861Y-34922375D01*
X213392621Y-34807379D01*
X213277625Y-34719139D01*
X213241593Y-34704214D01*
X213151223Y-34666782D01*
X213151221Y-34666781D01*
X213143709Y-34663670D01*
X213000000Y-34644750D01*
X212856291Y-34663670D01*
X212848779Y-34666781D01*
X212848777Y-34666782D01*
X212758407Y-34704214D01*
X212722375Y-34719139D01*
X212607379Y-34807379D01*
X212519139Y-34922375D01*
X212516028Y-34929886D01*
X212468882Y-35043709D01*
X212463670Y-35056291D01*
X212444750Y-35200000D01*
X212463670Y-35343709D01*
X212466781Y-35351221D01*
X212466782Y-35351223D01*
X212492711Y-35413822D01*
X212519139Y-35477625D01*
X212524086Y-35484072D01*
X212528152Y-35491115D01*
X212526968Y-35491799D01*
X212549070Y-35548964D01*
X212549500Y-35559285D01*
X212549500Y-39540715D01*
X212529815Y-39607754D01*
X212524168Y-39615785D01*
X212524084Y-39615931D01*
X212519139Y-39622375D01*
X212463670Y-39756291D01*
X212444750Y-39900000D01*
X209000000Y-39900000D01*
X209000000Y-32216318D01*
X210022962Y-32216318D01*
X210032687Y-32228609D01*
X210064313Y-32249740D01*
X210074271Y-32255147D01*
X210250913Y-32331038D01*
X210261695Y-32334542D01*
X210449208Y-32376971D01*
X210460442Y-32378450D01*
X210652557Y-32385999D01*
X210663860Y-32385407D01*
X210854146Y-32357817D01*
X210865146Y-32355176D01*
X211047209Y-32293373D01*
X211057555Y-32288767D01*
X211168282Y-32226757D01*
X211177989Y-32216840D01*
X211175081Y-32209292D01*
X210612607Y-31646817D01*
X210598887Y-31639325D01*
X210597082Y-31639454D01*
X210590573Y-31643637D01*
X210029058Y-32205153D01*
X210022962Y-32216318D01*
X209000000Y-32216318D01*
X209000000Y-31251556D01*
X209488007Y-31251556D01*
X209500581Y-31443397D01*
X209502352Y-31454579D01*
X209549682Y-31640942D01*
X209553455Y-31651597D01*
X209633955Y-31826214D01*
X209639612Y-31836013D01*
X209645954Y-31844987D01*
X209656374Y-31853242D01*
X209669463Y-31846326D01*
X210228183Y-31287607D01*
X210234459Y-31276113D01*
X210964325Y-31276113D01*
X210964454Y-31277918D01*
X210968637Y-31284427D01*
X211530440Y-31846229D01*
X211542621Y-31852880D01*
X211549097Y-31848032D01*
X211613767Y-31732555D01*
X211618373Y-31722209D01*
X211680176Y-31540146D01*
X211682817Y-31529146D01*
X211710699Y-31336844D01*
X211711317Y-31329596D01*
X211712651Y-31278653D01*
X211712412Y-31271358D01*
X211694634Y-31077878D01*
X211692570Y-31066745D01*
X211640382Y-30881699D01*
X211636325Y-30871129D01*
X211552083Y-30700303D01*
X211544877Y-30694894D01*
X211532651Y-30701560D01*
X210971817Y-31262393D01*
X210964325Y-31276113D01*
X210234459Y-31276113D01*
X210235675Y-31273887D01*
X210235546Y-31272082D01*
X210231363Y-31265573D01*
X209668337Y-30702548D01*
X209656156Y-30695897D01*
X209650284Y-30700292D01*
X209574602Y-30844141D01*
X209570269Y-30854602D01*
X209513256Y-31038214D01*
X209510900Y-31049296D01*
X209488303Y-31240216D01*
X209488007Y-31251556D01*
X209000000Y-31251556D01*
X209000000Y-30117772D01*
X209749500Y-30117772D01*
X209749948Y-30121473D01*
X209756360Y-30174456D01*
X209760364Y-30207547D01*
X209763296Y-30214951D01*
X209763296Y-30214953D01*
X209788767Y-30279284D01*
X209815887Y-30347783D01*
X209907078Y-30467922D01*
X209913810Y-30473032D01*
X209959879Y-30508000D01*
X210027217Y-30559113D01*
X210035078Y-30562225D01*
X210035079Y-30562226D01*
X210160047Y-30611704D01*
X210160049Y-30611704D01*
X210167453Y-30614636D01*
X210175357Y-30615592D01*
X210175359Y-30615593D01*
X210228073Y-30621972D01*
X210257228Y-30625500D01*
X210260957Y-30625500D01*
X210264689Y-30625725D01*
X210264592Y-30627333D01*
X210325388Y-30645185D01*
X210346030Y-30661819D01*
X210587393Y-30903183D01*
X210601113Y-30910675D01*
X210602918Y-30910546D01*
X210609427Y-30906363D01*
X210853970Y-30661819D01*
X210915293Y-30628334D01*
X210935338Y-30626179D01*
X210935311Y-30625725D01*
X210939043Y-30625500D01*
X210942772Y-30625500D01*
X210971927Y-30621972D01*
X211024641Y-30615593D01*
X211024643Y-30615592D01*
X211032547Y-30614636D01*
X211039951Y-30611704D01*
X211039953Y-30611704D01*
X211164921Y-30562226D01*
X211164922Y-30562225D01*
X211172783Y-30559113D01*
X211240122Y-30508000D01*
X211286190Y-30473032D01*
X211292922Y-30467922D01*
X211384113Y-30347783D01*
X211411234Y-30279284D01*
X211436704Y-30214953D01*
X211436704Y-30214951D01*
X211439636Y-30207547D01*
X211443641Y-30174456D01*
X211450052Y-30121473D01*
X211450500Y-30117772D01*
X211450500Y-30041318D01*
X220972962Y-30041318D01*
X220982687Y-30053609D01*
X221014313Y-30074740D01*
X221024271Y-30080147D01*
X221200913Y-30156038D01*
X221211695Y-30159542D01*
X221399208Y-30201971D01*
X221410442Y-30203450D01*
X221602557Y-30210999D01*
X221613860Y-30210407D01*
X221804146Y-30182817D01*
X221815146Y-30180176D01*
X221997209Y-30118373D01*
X222007555Y-30113767D01*
X222118282Y-30051757D01*
X222127989Y-30041840D01*
X222125081Y-30034292D01*
X221562607Y-29471817D01*
X221548887Y-29464325D01*
X221547082Y-29464454D01*
X221540573Y-29468637D01*
X220979058Y-30030153D01*
X220972962Y-30041318D01*
X211450500Y-30041318D01*
X211450500Y-29432228D01*
X211439636Y-29342453D01*
X211414743Y-29279579D01*
X211387226Y-29210079D01*
X211387225Y-29210078D01*
X211384113Y-29202217D01*
X211307371Y-29101113D01*
X211298032Y-29088810D01*
X211292922Y-29082078D01*
X211285647Y-29076556D01*
X220438007Y-29076556D01*
X220450581Y-29268397D01*
X220452352Y-29279579D01*
X220499682Y-29465942D01*
X220503455Y-29476597D01*
X220583955Y-29651214D01*
X220589612Y-29661013D01*
X220595954Y-29669987D01*
X220606374Y-29678242D01*
X220619463Y-29671326D01*
X221178183Y-29112607D01*
X221184459Y-29101113D01*
X221914325Y-29101113D01*
X221914454Y-29102918D01*
X221918637Y-29109427D01*
X222163181Y-29353970D01*
X222196666Y-29415293D01*
X222198821Y-29435338D01*
X222199275Y-29435311D01*
X222199500Y-29439043D01*
X222199500Y-29442772D01*
X222210364Y-29532547D01*
X222265887Y-29672783D01*
X222270999Y-29679517D01*
X222270999Y-29679518D01*
X222322855Y-29747835D01*
X222357078Y-29792922D01*
X222477217Y-29884113D01*
X222485078Y-29887225D01*
X222485079Y-29887226D01*
X222610047Y-29936704D01*
X222610049Y-29936704D01*
X222617453Y-29939636D01*
X222625357Y-29940592D01*
X222625359Y-29940593D01*
X222678073Y-29946972D01*
X222707228Y-29950500D01*
X223392772Y-29950500D01*
X223421927Y-29946972D01*
X223474641Y-29940593D01*
X223474643Y-29940592D01*
X223482547Y-29939636D01*
X223489951Y-29936704D01*
X223489953Y-29936704D01*
X223614921Y-29887226D01*
X223614922Y-29887225D01*
X223622783Y-29884113D01*
X223742922Y-29792922D01*
X223777145Y-29747835D01*
X223829001Y-29679518D01*
X223829001Y-29679517D01*
X223834113Y-29672783D01*
X223889636Y-29532547D01*
X223900500Y-29442772D01*
X223900500Y-29400000D01*
X239444815Y-29400000D01*
X239463503Y-29577803D01*
X239518750Y-29747835D01*
X239521997Y-29753460D01*
X239521998Y-29753461D01*
X239544781Y-29792922D01*
X239608141Y-29902665D01*
X239727770Y-30035526D01*
X239835840Y-30114044D01*
X239872407Y-30140612D01*
X239870802Y-30142821D01*
X239910706Y-30184656D01*
X239924500Y-30241495D01*
X239924500Y-34442973D01*
X239904815Y-34510012D01*
X239898876Y-34518460D01*
X239891891Y-34527563D01*
X239819139Y-34622375D01*
X239816028Y-34629886D01*
X239777010Y-34724086D01*
X239763670Y-34756291D01*
X239744750Y-34900000D01*
X239763670Y-35043709D01*
X239766781Y-35051221D01*
X239766782Y-35051223D01*
X239772221Y-35064354D01*
X239819139Y-35177625D01*
X239824086Y-35184072D01*
X239894242Y-35275500D01*
X239907379Y-35292621D01*
X240022375Y-35380861D01*
X240029887Y-35383972D01*
X240029886Y-35383972D01*
X240148777Y-35433218D01*
X240148779Y-35433219D01*
X240156291Y-35436330D01*
X240300000Y-35455250D01*
X240443709Y-35436330D01*
X240451221Y-35433219D01*
X240451223Y-35433218D01*
X240570114Y-35383972D01*
X240570113Y-35383972D01*
X240577625Y-35380861D01*
X240692621Y-35292621D01*
X240705759Y-35275500D01*
X240775914Y-35184072D01*
X240780861Y-35177625D01*
X240827779Y-35064354D01*
X240833218Y-35051223D01*
X240833219Y-35051221D01*
X240836330Y-35043709D01*
X240855250Y-34900000D01*
X240836330Y-34756291D01*
X240822991Y-34724086D01*
X240783972Y-34629886D01*
X240780861Y-34622375D01*
X240708109Y-34527563D01*
X240701124Y-34518460D01*
X240675930Y-34453290D01*
X240675500Y-34442973D01*
X240675500Y-30241495D01*
X240695185Y-30174456D01*
X240728858Y-30142354D01*
X240727593Y-30140612D01*
X240764160Y-30114044D01*
X240872230Y-30035526D01*
X240957851Y-29940434D01*
X241017337Y-29903787D01*
X241087194Y-29905118D01*
X241142149Y-29940434D01*
X241227770Y-30035526D01*
X241372407Y-30140612D01*
X241378341Y-30143254D01*
X241474086Y-30185882D01*
X241535733Y-30213329D01*
X241562349Y-30218986D01*
X241704246Y-30249148D01*
X241704251Y-30249148D01*
X241710609Y-30250500D01*
X241889391Y-30250500D01*
X241895749Y-30249148D01*
X241895754Y-30249148D01*
X242037651Y-30218986D01*
X242064267Y-30213329D01*
X242125915Y-30185882D01*
X242221659Y-30143254D01*
X242227593Y-30140612D01*
X242372230Y-30035526D01*
X242457851Y-29940434D01*
X242517337Y-29903787D01*
X242587194Y-29905118D01*
X242642149Y-29940434D01*
X242727770Y-30035526D01*
X242835840Y-30114044D01*
X242872407Y-30140612D01*
X242870802Y-30142821D01*
X242910706Y-30184656D01*
X242924500Y-30241495D01*
X242924500Y-34442973D01*
X242904815Y-34510012D01*
X242898876Y-34518460D01*
X242891891Y-34527563D01*
X242819139Y-34622375D01*
X242816028Y-34629886D01*
X242777010Y-34724086D01*
X242763670Y-34756291D01*
X242744750Y-34900000D01*
X242763670Y-35043709D01*
X242766781Y-35051221D01*
X242766782Y-35051223D01*
X242772221Y-35064354D01*
X242819139Y-35177625D01*
X242824086Y-35184072D01*
X242894242Y-35275500D01*
X242907379Y-35292621D01*
X243022375Y-35380861D01*
X243029887Y-35383972D01*
X243029886Y-35383972D01*
X243148777Y-35433218D01*
X243148779Y-35433219D01*
X243156291Y-35436330D01*
X243300000Y-35455250D01*
X243443709Y-35436330D01*
X243451221Y-35433219D01*
X243451223Y-35433218D01*
X243570114Y-35383972D01*
X243570113Y-35383972D01*
X243577625Y-35380861D01*
X243692621Y-35292621D01*
X243705759Y-35275500D01*
X243775914Y-35184072D01*
X243780861Y-35177625D01*
X243827779Y-35064354D01*
X243833218Y-35051223D01*
X243833219Y-35051221D01*
X243836330Y-35043709D01*
X243855250Y-34900000D01*
X243836330Y-34756291D01*
X243822991Y-34724086D01*
X243783972Y-34629886D01*
X243780861Y-34622375D01*
X243708109Y-34527563D01*
X243701124Y-34518460D01*
X243675930Y-34453290D01*
X243675500Y-34442973D01*
X243675500Y-30241495D01*
X243695185Y-30174456D01*
X243728858Y-30142354D01*
X243727593Y-30140612D01*
X243764160Y-30114044D01*
X243872230Y-30035526D01*
X243957851Y-29940434D01*
X244017337Y-29903787D01*
X244087194Y-29905118D01*
X244142149Y-29940434D01*
X244227770Y-30035526D01*
X244372407Y-30140612D01*
X244378341Y-30143254D01*
X244474086Y-30185882D01*
X244535733Y-30213329D01*
X244562349Y-30218986D01*
X244704246Y-30249148D01*
X244704251Y-30249148D01*
X244710609Y-30250500D01*
X244889391Y-30250500D01*
X244895749Y-30249148D01*
X244895754Y-30249148D01*
X245037651Y-30218986D01*
X245064267Y-30213329D01*
X245206590Y-30149963D01*
X245275840Y-30140679D01*
X245339116Y-30170307D01*
X245353933Y-30185882D01*
X245420716Y-30269539D01*
X245430461Y-30279284D01*
X245561291Y-30383724D01*
X245572955Y-30391069D01*
X245723673Y-30463929D01*
X245736670Y-30468506D01*
X245901422Y-30506542D01*
X245911227Y-30507946D01*
X245913104Y-30508000D01*
X246028170Y-30508000D01*
X246043169Y-30503596D01*
X246044356Y-30502226D01*
X246046000Y-30494668D01*
X246046000Y-30490169D01*
X246554000Y-30490169D01*
X246558404Y-30505168D01*
X246559774Y-30506355D01*
X246567332Y-30507999D01*
X246686893Y-30507999D01*
X246688773Y-30507945D01*
X246698576Y-30506542D01*
X246863330Y-30468506D01*
X246876327Y-30463929D01*
X247027045Y-30391069D01*
X247038709Y-30383724D01*
X247169539Y-30279284D01*
X247179284Y-30269539D01*
X247283724Y-30138709D01*
X247291069Y-30127045D01*
X247363929Y-29976327D01*
X247368506Y-29963330D01*
X247406542Y-29798578D01*
X247407946Y-29788773D01*
X247408000Y-29786896D01*
X247408000Y-29671830D01*
X247403596Y-29656831D01*
X247402226Y-29655644D01*
X247394668Y-29654000D01*
X246571830Y-29654000D01*
X246556831Y-29658404D01*
X246555644Y-29659774D01*
X246554000Y-29667332D01*
X246554000Y-30490169D01*
X246046000Y-30490169D01*
X246046000Y-29128170D01*
X246554000Y-29128170D01*
X246558404Y-29143169D01*
X246559774Y-29144356D01*
X246567332Y-29146000D01*
X247390169Y-29146000D01*
X247405168Y-29141596D01*
X247406355Y-29140226D01*
X247407999Y-29132668D01*
X247407999Y-29013107D01*
X247407945Y-29011227D01*
X247406542Y-29001424D01*
X247368506Y-28836670D01*
X247363929Y-28823673D01*
X247291069Y-28672955D01*
X247283724Y-28661291D01*
X247179284Y-28530461D01*
X247169539Y-28520716D01*
X247038709Y-28416276D01*
X247027045Y-28408931D01*
X246876327Y-28336071D01*
X246863330Y-28331494D01*
X246698578Y-28293458D01*
X246688773Y-28292054D01*
X246686896Y-28292000D01*
X246571830Y-28292000D01*
X246556831Y-28296404D01*
X246555644Y-28297774D01*
X246554000Y-28305332D01*
X246554000Y-29128170D01*
X246046000Y-29128170D01*
X246046000Y-28309831D01*
X246041596Y-28294832D01*
X246040226Y-28293645D01*
X246032668Y-28292001D01*
X245913107Y-28292001D01*
X245911227Y-28292055D01*
X245901424Y-28293458D01*
X245736670Y-28331494D01*
X245723673Y-28336071D01*
X245572955Y-28408931D01*
X245561291Y-28416276D01*
X245430461Y-28520716D01*
X245420716Y-28530461D01*
X245353933Y-28614118D01*
X245296725Y-28654230D01*
X245226912Y-28657045D01*
X245206590Y-28650037D01*
X245125914Y-28614118D01*
X245064267Y-28586671D01*
X245037651Y-28581014D01*
X244895754Y-28550852D01*
X244895749Y-28550852D01*
X244889391Y-28549500D01*
X244710609Y-28549500D01*
X244704251Y-28550852D01*
X244704246Y-28550852D01*
X244562349Y-28581014D01*
X244535733Y-28586671D01*
X244372408Y-28659388D01*
X244227770Y-28764474D01*
X244142149Y-28859566D01*
X244082663Y-28896213D01*
X244012806Y-28894882D01*
X243957851Y-28859566D01*
X243872230Y-28764474D01*
X243727593Y-28659388D01*
X243706590Y-28650037D01*
X243570206Y-28589315D01*
X243570204Y-28589314D01*
X243564267Y-28586671D01*
X243537651Y-28581014D01*
X243395754Y-28550852D01*
X243395749Y-28550852D01*
X243389391Y-28549500D01*
X243210609Y-28549500D01*
X243204251Y-28550852D01*
X243204246Y-28550852D01*
X243062349Y-28581014D01*
X243035733Y-28586671D01*
X242872408Y-28659388D01*
X242727770Y-28764474D01*
X242642149Y-28859566D01*
X242582663Y-28896213D01*
X242512806Y-28894882D01*
X242457851Y-28859566D01*
X242372230Y-28764474D01*
X242227593Y-28659388D01*
X242206590Y-28650037D01*
X242070206Y-28589315D01*
X242070204Y-28589314D01*
X242064267Y-28586671D01*
X242037651Y-28581014D01*
X241895754Y-28550852D01*
X241895749Y-28550852D01*
X241889391Y-28549500D01*
X241710609Y-28549500D01*
X241704251Y-28550852D01*
X241704246Y-28550852D01*
X241562349Y-28581014D01*
X241535733Y-28586671D01*
X241372408Y-28659388D01*
X241227770Y-28764474D01*
X241142149Y-28859566D01*
X241082663Y-28896213D01*
X241012806Y-28894882D01*
X240957851Y-28859566D01*
X240872230Y-28764474D01*
X240727593Y-28659388D01*
X240706590Y-28650037D01*
X240570206Y-28589315D01*
X240570204Y-28589314D01*
X240564267Y-28586671D01*
X240537651Y-28581014D01*
X240395754Y-28550852D01*
X240395749Y-28550852D01*
X240389391Y-28549500D01*
X240210609Y-28549500D01*
X240204251Y-28550852D01*
X240204246Y-28550852D01*
X240062349Y-28581014D01*
X240035733Y-28586671D01*
X239872408Y-28659388D01*
X239727770Y-28764474D01*
X239608141Y-28897335D01*
X239604893Y-28902961D01*
X239542386Y-29011227D01*
X239518750Y-29052165D01*
X239463503Y-29222197D01*
X239444815Y-29400000D01*
X223900500Y-29400000D01*
X223900500Y-28757228D01*
X223889636Y-28667453D01*
X223882741Y-28650037D01*
X223837226Y-28535079D01*
X223837225Y-28535078D01*
X223834113Y-28527217D01*
X223742922Y-28407078D01*
X223649374Y-28336071D01*
X223629518Y-28320999D01*
X223629517Y-28320999D01*
X223622783Y-28315887D01*
X223614922Y-28312775D01*
X223614921Y-28312774D01*
X223489953Y-28263296D01*
X223489951Y-28263296D01*
X223482547Y-28260364D01*
X223474643Y-28259408D01*
X223474641Y-28259407D01*
X223421927Y-28253028D01*
X223392772Y-28249500D01*
X222707228Y-28249500D01*
X222678073Y-28253028D01*
X222625359Y-28259407D01*
X222625357Y-28259408D01*
X222617453Y-28260364D01*
X222610049Y-28263296D01*
X222610047Y-28263296D01*
X222485079Y-28312774D01*
X222485078Y-28312775D01*
X222477217Y-28315887D01*
X222470483Y-28320999D01*
X222470482Y-28320999D01*
X222450626Y-28336071D01*
X222357078Y-28407078D01*
X222265887Y-28527217D01*
X222262775Y-28535078D01*
X222262774Y-28535079D01*
X222217259Y-28650037D01*
X222210364Y-28667453D01*
X222199500Y-28757228D01*
X222199500Y-28760956D01*
X222199275Y-28764689D01*
X222197667Y-28764592D01*
X222179815Y-28825388D01*
X222163181Y-28846030D01*
X221921817Y-29087393D01*
X221914325Y-29101113D01*
X221184459Y-29101113D01*
X221185675Y-29098887D01*
X221185546Y-29097082D01*
X221181363Y-29090573D01*
X220618337Y-28527548D01*
X220606156Y-28520897D01*
X220600284Y-28525292D01*
X220524602Y-28669141D01*
X220520269Y-28679602D01*
X220463256Y-28863214D01*
X220460900Y-28874296D01*
X220438303Y-29065216D01*
X220438007Y-29076556D01*
X211285647Y-29076556D01*
X211270707Y-29065216D01*
X211179518Y-28995999D01*
X211179517Y-28995999D01*
X211172783Y-28990887D01*
X211164922Y-28987775D01*
X211164921Y-28987774D01*
X211039953Y-28938296D01*
X211039951Y-28938296D01*
X211032547Y-28935364D01*
X211024643Y-28934408D01*
X211024641Y-28934407D01*
X210971927Y-28928028D01*
X210942772Y-28924500D01*
X210257228Y-28924500D01*
X210228073Y-28928028D01*
X210175359Y-28934407D01*
X210175357Y-28934408D01*
X210167453Y-28935364D01*
X210160049Y-28938296D01*
X210160047Y-28938296D01*
X210035079Y-28987774D01*
X210035078Y-28987775D01*
X210027217Y-28990887D01*
X210020483Y-28995999D01*
X210020482Y-28995999D01*
X209929293Y-29065216D01*
X209907078Y-29082078D01*
X209901968Y-29088810D01*
X209892630Y-29101113D01*
X209815887Y-29202217D01*
X209812775Y-29210078D01*
X209812774Y-29210079D01*
X209785257Y-29279579D01*
X209760364Y-29342453D01*
X209749500Y-29432228D01*
X209749500Y-30117772D01*
X209000000Y-30117772D01*
X209000000Y-29551362D01*
X209019685Y-29484323D01*
X209036319Y-29463681D01*
X210463681Y-28036319D01*
X210525004Y-28002834D01*
X210551362Y-28000000D01*
X220851965Y-28000000D01*
X220919004Y-28019685D01*
G37*
%TD.AperFunction*%
%TD*%
%TA.AperFunction,Conductor*%
%TO.N,/Antenna/ANT_NET*%
G36*
X255987306Y-22252883D02*
G01*
X256000000Y-22255408D01*
X256011980Y-22253025D01*
X256024191Y-22253025D01*
X256024191Y-22253654D01*
X256034803Y-22252989D01*
X256240141Y-22267675D01*
X256257640Y-22270191D01*
X256484224Y-22319482D01*
X256501197Y-22324465D01*
X256718463Y-22405501D01*
X256734556Y-22412851D01*
X256938069Y-22523978D01*
X256952952Y-22533543D01*
X257138579Y-22672501D01*
X257151950Y-22684087D01*
X257315913Y-22848050D01*
X257327499Y-22861421D01*
X257466457Y-23047048D01*
X257476022Y-23061931D01*
X257587149Y-23265444D01*
X257594499Y-23281537D01*
X257675535Y-23498803D01*
X257680518Y-23515776D01*
X257729809Y-23742360D01*
X257732325Y-23759859D01*
X257745857Y-23949062D01*
X257747011Y-23965195D01*
X257746346Y-23975809D01*
X257746975Y-23975809D01*
X257746975Y-23988020D01*
X257744592Y-24000000D01*
X257746975Y-24011980D01*
X257747117Y-24012694D01*
X257749500Y-24036885D01*
X257749500Y-43876000D01*
X257729815Y-43943039D01*
X257677011Y-43988794D01*
X257625500Y-44000000D01*
X257124000Y-44000000D01*
X257056961Y-43980315D01*
X257011206Y-43927511D01*
X257000000Y-43876000D01*
X257000000Y-41000000D01*
X254124000Y-41000000D01*
X254056961Y-40980315D01*
X254011206Y-40927511D01*
X254000000Y-40876000D01*
X254000000Y-29500000D01*
X253859757Y-29359757D01*
X253843269Y-29339342D01*
X253826121Y-29312784D01*
X253821167Y-29304408D01*
X253820605Y-29303365D01*
X253800806Y-29266671D01*
X253793281Y-29259714D01*
X253790347Y-29255932D01*
X253787129Y-29252395D01*
X253781572Y-29243790D01*
X253773526Y-29237447D01*
X253747904Y-29217248D01*
X253740501Y-29210925D01*
X253716539Y-29188774D01*
X253716533Y-29188770D01*
X253709009Y-29181815D01*
X253699636Y-29177671D01*
X253695636Y-29175044D01*
X253691448Y-29172742D01*
X253683400Y-29166397D01*
X253673729Y-29163001D01*
X253665365Y-29158403D01*
X253637420Y-29137422D01*
X250512607Y-26012629D01*
X250500000Y-26000022D01*
X235691624Y-26000014D01*
X210517830Y-26000000D01*
X210500000Y-26000000D01*
X206999996Y-29500000D01*
X207000000Y-53500000D01*
X207007412Y-53507412D01*
X207007412Y-53507413D01*
X209900701Y-56400929D01*
X210500004Y-57000279D01*
X210510484Y-57000279D01*
X225308015Y-57000176D01*
X250500004Y-57000000D01*
X254014608Y-53499366D01*
X254003153Y-44482170D01*
X254000154Y-42121774D01*
X254019753Y-42054709D01*
X254072499Y-42008887D01*
X254124228Y-41997616D01*
X255572326Y-41998507D01*
X256376077Y-41999002D01*
X256443105Y-42018728D01*
X256488827Y-42071560D01*
X256500001Y-42123002D01*
X256500000Y-44500000D01*
X257625500Y-44500000D01*
X257692539Y-44519685D01*
X257738294Y-44572489D01*
X257749500Y-44624000D01*
X257749500Y-58963115D01*
X257747117Y-58987306D01*
X257744592Y-59000000D01*
X257746975Y-59011980D01*
X257746975Y-59024191D01*
X257746346Y-59024191D01*
X257747011Y-59034803D01*
X257735627Y-59193982D01*
X257732326Y-59240135D01*
X257729809Y-59257640D01*
X257680519Y-59484222D01*
X257675535Y-59501197D01*
X257594499Y-59718463D01*
X257587149Y-59734556D01*
X257476022Y-59938069D01*
X257466457Y-59952952D01*
X257327499Y-60138579D01*
X257315913Y-60151950D01*
X257151950Y-60315913D01*
X257138579Y-60327499D01*
X256952952Y-60466457D01*
X256938069Y-60476022D01*
X256734556Y-60587149D01*
X256718463Y-60594499D01*
X256501197Y-60675535D01*
X256484224Y-60680518D01*
X256257640Y-60729809D01*
X256240141Y-60732325D01*
X256034803Y-60747011D01*
X256024191Y-60746346D01*
X256024191Y-60746975D01*
X256011980Y-60746975D01*
X256000000Y-60744592D01*
X255988020Y-60746975D01*
X255987306Y-60747117D01*
X255963115Y-60749500D01*
X205036885Y-60749500D01*
X205012694Y-60747117D01*
X205011980Y-60746975D01*
X205000000Y-60744592D01*
X204988020Y-60746975D01*
X204975809Y-60746975D01*
X204975809Y-60746346D01*
X204965197Y-60747011D01*
X204759859Y-60732325D01*
X204742360Y-60729809D01*
X204515776Y-60680518D01*
X204498803Y-60675535D01*
X204281537Y-60594499D01*
X204265444Y-60587149D01*
X204061931Y-60476022D01*
X204047048Y-60466457D01*
X203861421Y-60327499D01*
X203848050Y-60315913D01*
X203684087Y-60151950D01*
X203672501Y-60138579D01*
X203533543Y-59952952D01*
X203523978Y-59938069D01*
X203412851Y-59734556D01*
X203405501Y-59718463D01*
X203324465Y-59501197D01*
X203319481Y-59484222D01*
X203270191Y-59257640D01*
X203267674Y-59240135D01*
X203264374Y-59193982D01*
X203252989Y-59034803D01*
X203253654Y-59024191D01*
X203253025Y-59024191D01*
X203253025Y-59011980D01*
X203255408Y-59000000D01*
X203252883Y-58987306D01*
X203250500Y-58963115D01*
X203250500Y-58042095D01*
X204145028Y-58042095D01*
X204170534Y-58309431D01*
X204234364Y-58570285D01*
X204335182Y-58819192D01*
X204470875Y-59050938D01*
X204638601Y-59260669D01*
X204834846Y-59443991D01*
X205055499Y-59597064D01*
X205059532Y-59599070D01*
X205059533Y-59599071D01*
X205291905Y-59714674D01*
X205291909Y-59714676D01*
X205295938Y-59716680D01*
X205300214Y-59718082D01*
X205300217Y-59718083D01*
X205486309Y-59779087D01*
X205551126Y-59800335D01*
X205631154Y-59814230D01*
X205811983Y-59845628D01*
X205811988Y-59845629D01*
X205815717Y-59846276D01*
X205849078Y-59847937D01*
X205899031Y-59850424D01*
X205899050Y-59850424D01*
X205900567Y-59850500D01*
X206068223Y-59850500D01*
X206267846Y-59836016D01*
X206272227Y-59835049D01*
X206272232Y-59835048D01*
X206380410Y-59811164D01*
X206530080Y-59778120D01*
X206781211Y-59682975D01*
X207015976Y-59552574D01*
X207229458Y-59389650D01*
X207417185Y-59197614D01*
X207575225Y-58980491D01*
X207700265Y-58742828D01*
X207789688Y-58489603D01*
X207790556Y-58485200D01*
X207840751Y-58230532D01*
X207840751Y-58230529D01*
X207841620Y-58226122D01*
X207850781Y-58042095D01*
X253145028Y-58042095D01*
X253170534Y-58309431D01*
X253234364Y-58570285D01*
X253335182Y-58819192D01*
X253470875Y-59050938D01*
X253638601Y-59260669D01*
X253834846Y-59443991D01*
X254055499Y-59597064D01*
X254059532Y-59599070D01*
X254059533Y-59599071D01*
X254291905Y-59714674D01*
X254291909Y-59714676D01*
X254295938Y-59716680D01*
X254300214Y-59718082D01*
X254300217Y-59718083D01*
X254486309Y-59779087D01*
X254551126Y-59800335D01*
X254631154Y-59814230D01*
X254811983Y-59845628D01*
X254811988Y-59845629D01*
X254815717Y-59846276D01*
X254849078Y-59847937D01*
X254899031Y-59850424D01*
X254899050Y-59850424D01*
X254900567Y-59850500D01*
X255068223Y-59850500D01*
X255267846Y-59836016D01*
X255272227Y-59835049D01*
X255272232Y-59835048D01*
X255380410Y-59811164D01*
X255530080Y-59778120D01*
X255781211Y-59682975D01*
X256015976Y-59552574D01*
X256229458Y-59389650D01*
X256417185Y-59197614D01*
X256575225Y-58980491D01*
X256700265Y-58742828D01*
X256789688Y-58489603D01*
X256790556Y-58485200D01*
X256840751Y-58230532D01*
X256840751Y-58230529D01*
X256841620Y-58226122D01*
X256854972Y-57957905D01*
X256829466Y-57690569D01*
X256765636Y-57429715D01*
X256664818Y-57180808D01*
X256529125Y-56949062D01*
X256361399Y-56739331D01*
X256165154Y-56556009D01*
X255944501Y-56402936D01*
X255940467Y-56400929D01*
X255708095Y-56285326D01*
X255708091Y-56285324D01*
X255704062Y-56283320D01*
X255699786Y-56281918D01*
X255699783Y-56281917D01*
X255453142Y-56201064D01*
X255453140Y-56201064D01*
X255448874Y-56199665D01*
X255368846Y-56185770D01*
X255188017Y-56154372D01*
X255188012Y-56154371D01*
X255184283Y-56153724D01*
X255150922Y-56152063D01*
X255100969Y-56149576D01*
X255100950Y-56149576D01*
X255099433Y-56149500D01*
X254931777Y-56149500D01*
X254732154Y-56163984D01*
X254727773Y-56164951D01*
X254727768Y-56164952D01*
X254619590Y-56188836D01*
X254469920Y-56221880D01*
X254218789Y-56317025D01*
X253984024Y-56447426D01*
X253770542Y-56610350D01*
X253582815Y-56802386D01*
X253424775Y-57019509D01*
X253299735Y-57257172D01*
X253210312Y-57510397D01*
X253209445Y-57514798D01*
X253209444Y-57514800D01*
X253175663Y-57686193D01*
X253158380Y-57773878D01*
X253145028Y-58042095D01*
X207850781Y-58042095D01*
X207854972Y-57957905D01*
X207829466Y-57690569D01*
X207765636Y-57429715D01*
X207664818Y-57180808D01*
X207529125Y-56949062D01*
X207361399Y-56739331D01*
X207165154Y-56556009D01*
X206944501Y-56402936D01*
X206940467Y-56400929D01*
X206708095Y-56285326D01*
X206708091Y-56285324D01*
X206704062Y-56283320D01*
X206699786Y-56281918D01*
X206699783Y-56281917D01*
X206453142Y-56201064D01*
X206453140Y-56201064D01*
X206448874Y-56199665D01*
X206368846Y-56185770D01*
X206188017Y-56154372D01*
X206188012Y-56154371D01*
X206184283Y-56153724D01*
X206150922Y-56152063D01*
X206100969Y-56149576D01*
X206100950Y-56149576D01*
X206099433Y-56149500D01*
X205931777Y-56149500D01*
X205732154Y-56163984D01*
X205727773Y-56164951D01*
X205727768Y-56164952D01*
X205619590Y-56188836D01*
X205469920Y-56221880D01*
X205218789Y-56317025D01*
X204984024Y-56447426D01*
X204770542Y-56610350D01*
X204582815Y-56802386D01*
X204424775Y-57019509D01*
X204299735Y-57257172D01*
X204210312Y-57510397D01*
X204209445Y-57514798D01*
X204209444Y-57514800D01*
X204175663Y-57686193D01*
X204158380Y-57773878D01*
X204145028Y-58042095D01*
X203250500Y-58042095D01*
X203250500Y-25042095D01*
X204145028Y-25042095D01*
X204170534Y-25309431D01*
X204234364Y-25570285D01*
X204335182Y-25819192D01*
X204470875Y-26050938D01*
X204638601Y-26260669D01*
X204834846Y-26443991D01*
X205055499Y-26597064D01*
X205059532Y-26599070D01*
X205059533Y-26599071D01*
X205291905Y-26714674D01*
X205291909Y-26714676D01*
X205295938Y-26716680D01*
X205300214Y-26718082D01*
X205300217Y-26718083D01*
X205486309Y-26779087D01*
X205551126Y-26800335D01*
X205631154Y-26814230D01*
X205811983Y-26845628D01*
X205811988Y-26845629D01*
X205815717Y-26846276D01*
X205849078Y-26847937D01*
X205899031Y-26850424D01*
X205899050Y-26850424D01*
X205900567Y-26850500D01*
X206068223Y-26850500D01*
X206267846Y-26836016D01*
X206272227Y-26835049D01*
X206272232Y-26835048D01*
X206380410Y-26811164D01*
X206530080Y-26778120D01*
X206781211Y-26682975D01*
X207015976Y-26552574D01*
X207229458Y-26389650D01*
X207417185Y-26197614D01*
X207575225Y-25980491D01*
X207700265Y-25742828D01*
X207789688Y-25489603D01*
X207790556Y-25485200D01*
X207840751Y-25230532D01*
X207840751Y-25230529D01*
X207841620Y-25226122D01*
X207850781Y-25042095D01*
X253145028Y-25042095D01*
X253170534Y-25309431D01*
X253234364Y-25570285D01*
X253335182Y-25819192D01*
X253470875Y-26050938D01*
X253638601Y-26260669D01*
X253834846Y-26443991D01*
X254055499Y-26597064D01*
X254059532Y-26599070D01*
X254059533Y-26599071D01*
X254291905Y-26714674D01*
X254291909Y-26714676D01*
X254295938Y-26716680D01*
X254300214Y-26718082D01*
X254300217Y-26718083D01*
X254486309Y-26779087D01*
X254551126Y-26800335D01*
X254631154Y-26814230D01*
X254811983Y-26845628D01*
X254811988Y-26845629D01*
X254815717Y-26846276D01*
X254849078Y-26847937D01*
X254899031Y-26850424D01*
X254899050Y-26850424D01*
X254900567Y-26850500D01*
X255068223Y-26850500D01*
X255267846Y-26836016D01*
X255272227Y-26835049D01*
X255272232Y-26835048D01*
X255380410Y-26811164D01*
X255530080Y-26778120D01*
X255781211Y-26682975D01*
X256015976Y-26552574D01*
X256229458Y-26389650D01*
X256417185Y-26197614D01*
X256575225Y-25980491D01*
X256700265Y-25742828D01*
X256789688Y-25489603D01*
X256790556Y-25485200D01*
X256840751Y-25230532D01*
X256840751Y-25230529D01*
X256841620Y-25226122D01*
X256854972Y-24957905D01*
X256829466Y-24690569D01*
X256765636Y-24429715D01*
X256664818Y-24180808D01*
X256529125Y-23949062D01*
X256361399Y-23739331D01*
X256165154Y-23556009D01*
X255944501Y-23402936D01*
X255940467Y-23400929D01*
X255708095Y-23285326D01*
X255708091Y-23285324D01*
X255704062Y-23283320D01*
X255699786Y-23281918D01*
X255699783Y-23281917D01*
X255453142Y-23201064D01*
X255453140Y-23201064D01*
X255448874Y-23199665D01*
X255368846Y-23185770D01*
X255188017Y-23154372D01*
X255188012Y-23154371D01*
X255184283Y-23153724D01*
X255150922Y-23152063D01*
X255100969Y-23149576D01*
X255100950Y-23149576D01*
X255099433Y-23149500D01*
X254931777Y-23149500D01*
X254732154Y-23163984D01*
X254727773Y-23164951D01*
X254727768Y-23164952D01*
X254619590Y-23188836D01*
X254469920Y-23221880D01*
X254218789Y-23317025D01*
X253984024Y-23447426D01*
X253770542Y-23610350D01*
X253582815Y-23802386D01*
X253424775Y-24019509D01*
X253299735Y-24257172D01*
X253210312Y-24510397D01*
X253209445Y-24514798D01*
X253209444Y-24514800D01*
X253175663Y-24686193D01*
X253158380Y-24773878D01*
X253145028Y-25042095D01*
X207850781Y-25042095D01*
X207854972Y-24957905D01*
X207829466Y-24690569D01*
X207765636Y-24429715D01*
X207664818Y-24180808D01*
X207529125Y-23949062D01*
X207361399Y-23739331D01*
X207165154Y-23556009D01*
X206944501Y-23402936D01*
X206940467Y-23400929D01*
X206708095Y-23285326D01*
X206708091Y-23285324D01*
X206704062Y-23283320D01*
X206699786Y-23281918D01*
X206699783Y-23281917D01*
X206453142Y-23201064D01*
X206453140Y-23201064D01*
X206448874Y-23199665D01*
X206368846Y-23185770D01*
X206188017Y-23154372D01*
X206188012Y-23154371D01*
X206184283Y-23153724D01*
X206150922Y-23152063D01*
X206100969Y-23149576D01*
X206100950Y-23149576D01*
X206099433Y-23149500D01*
X205931777Y-23149500D01*
X205732154Y-23163984D01*
X205727773Y-23164951D01*
X205727768Y-23164952D01*
X205619590Y-23188836D01*
X205469920Y-23221880D01*
X205218789Y-23317025D01*
X204984024Y-23447426D01*
X204770542Y-23610350D01*
X204582815Y-23802386D01*
X204424775Y-24019509D01*
X204299735Y-24257172D01*
X204210312Y-24510397D01*
X204209445Y-24514798D01*
X204209444Y-24514800D01*
X204175663Y-24686193D01*
X204158380Y-24773878D01*
X204145028Y-25042095D01*
X203250500Y-25042095D01*
X203250500Y-24036885D01*
X203252883Y-24012694D01*
X203253025Y-24011980D01*
X203255408Y-24000000D01*
X203253025Y-23988020D01*
X203253025Y-23975809D01*
X203253654Y-23975809D01*
X203252989Y-23965195D01*
X203254143Y-23949062D01*
X203267675Y-23759859D01*
X203270191Y-23742360D01*
X203319482Y-23515776D01*
X203324465Y-23498803D01*
X203405501Y-23281537D01*
X203412851Y-23265444D01*
X203523978Y-23061931D01*
X203533543Y-23047048D01*
X203672501Y-22861421D01*
X203684087Y-22848050D01*
X203848050Y-22684087D01*
X203861421Y-22672501D01*
X204047048Y-22533543D01*
X204061931Y-22523978D01*
X204265444Y-22412851D01*
X204281537Y-22405501D01*
X204498803Y-22324465D01*
X204515776Y-22319482D01*
X204742360Y-22270191D01*
X204759859Y-22267675D01*
X204965197Y-22252989D01*
X204975809Y-22253654D01*
X204975809Y-22253025D01*
X204988020Y-22253025D01*
X205000000Y-22255408D01*
X205011980Y-22253025D01*
X205012694Y-22252883D01*
X205036885Y-22250500D01*
X255963115Y-22250500D01*
X255987306Y-22252883D01*
G37*
%TD.AperFunction*%
%TD*%
M02*
