M48
; DRILL file {KiCad 6.0.11-2627ca5db0~126~ubuntu20.04.1} date Mon 06 Oct 2025 11:54:43 PM PDT
; FORMAT={-:-/ absolute / inch / decimal}
; #@! TF.CreationDate,2025-10-06T23:54:43-07:00
; #@! TF.GenerationSoftware,Kicad,Pcbnew,6.0.11-2627ca5db0~126~ubuntu20.04.1
; #@! TF.FileFunction,Plated,1,2,PTH
FMAT,2
INCH
; #@! TA.AperFunction,Plated,PTH,ViaDrill
T1C0.0118
; #@! TA.AperFunction,Plated,PTH,ComponentDrill
T2C0.0276
%
G90
G05
T1
X8.3031Y-2.1181
X8.3189Y-1.6063
X8.3425Y-1.9882
X8.3858Y-1.2638
X8.3858Y-1.3858
X8.3858Y-1.5709
X8.5315Y-1.4961
X8.5669Y-1.4055
X8.5669Y-1.9252
X8.5739Y-1.5385
X8.5984Y-1.8898
X8.6102Y-1.6142
X8.6496Y-1.2323
X8.6654Y-2.0157
X8.6732Y-1.811
X8.7205Y-1.4764
X8.7717Y-1.6693
X8.7874Y-1.8504
X8.8031Y-2.1575
X8.8465Y-1.8898
X8.874Y-1.4094
X8.9055Y-1.374
X8.9213Y-1.9213
X8.9291Y-1.8386
X8.9646Y-1.8937
X8.9685Y-1.7362
X8.9724Y-1.374
X8.9724Y-1.4094
X8.9724Y-2.1535
X9.0039Y-1.6496
X9.0236Y-1.7362
X9.0472Y-1.3465
X9.063Y-1.5
X9.0787Y-1.5472
X9.0787Y-1.7362
X9.0984Y-1.374
X9.1496Y-1.8819
X9.2008Y-2.063
X9.2598Y-1.4646
X9.2795Y-1.9173
X9.2953Y-1.7126
X9.3346Y-1.878
X9.3622Y-1.9173
X9.3661Y-1.9882
X9.4291Y-1.6457
X9.4567Y-2.1181
X9.4606Y-1.374
X9.5039Y-1.5236
X9.5276Y-1.4134
X9.5276Y-2.0354
X9.5354Y-1.7559
X9.5787Y-1.374
X9.5984Y-1.7047
X9.6181Y-1.7835
X9.6772Y-2.1102
X9.685Y-1.9331
X9.7402Y-1.4213
X9.752Y-1.7913
X9.8917Y-1.2598
X10.0197Y-1.6644
X10.0787Y-1.6644
X10.1339Y-1.5906
X10.1339Y-1.6535
X10.1339Y-1.7126
T2
X8.2913Y-1.1722
X8.2913Y-1.2313
X8.7224Y-1.1457
X8.7815Y-1.1457
X9.4606Y-1.1575
X9.5197Y-1.1575
X9.5787Y-1.1575
X9.6378Y-1.1575
X9.6969Y-1.1575
T0
M30
